<?xml version="1.0" encoding="UTF-8" standalone="no"?>
<!-- Created with Inkscape (http://www.inkscape.org/) -->

<svg
   xmlns:dc="http://purl.org/dc/elements/1.1/"
   xmlns:cc="http://creativecommons.org/ns#"
   xmlns:rdf="http://www.w3.org/1999/02/22-rdf-syntax-ns#"
   xmlns:svg="http://www.w3.org/2000/svg"
   xmlns="http://www.w3.org/2000/svg"
   xmlns:sodipodi="http://sodipodi.sourceforge.net/DTD/sodipodi-0.dtd"
   xmlns:inkscape="http://www.inkscape.org/namespaces/inkscape"
   width="210mm"
   height="297mm"
   id="svg2"
   version="1.1"
   inkscape:version="0.48.2 r9819"
   sodipodi:docname="IconoVectorial.svg">
  <defs
     id="defs4" />
  <sodipodi:namedview
     id="base"
     pagecolor="#ffffff"
     bordercolor="#666666"
     borderopacity="1.0"
     inkscape:pageopacity="0.0"
     inkscape:pageshadow="2"
     inkscape:zoom="1.7981884"
     inkscape:cx="271.42857"
     inkscape:cy="725.71429"
     inkscape:document-units="px"
     inkscape:current-layer="layer1"
     showgrid="false"
     inkscape:window-width="1280"
     inkscape:window-height="904"
     inkscape:window-x="-4"
     inkscape:window-y="-4"
     inkscape:window-maximized="1" />
  <metadata
     id="metadata7">
    <rdf:RDF>
      <cc:Work
         rdf:about="">
        <dc:format>image/svg+xml</dc:format>
        <dc:type
           rdf:resource="http://purl.org/dc/dcmitype/StillImage" />
        <dc:title></dc:title>
      </cc:Work>
    </rdf:RDF>
  </metadata>
  <g
     inkscape:label="Capa 1"
     inkscape:groupmode="layer"
     id="layer1">
    <g
       id="g3028"
       transform="translate(-83.417288,13.902881)"
       inkscape:export-filename="C:\Proye\PhoneGap\GutiHarmonyTrainer\www\img\g3049.png"
       inkscape:export-xdpi="39.080002"
       inkscape:export-ydpi="39.080002">
      <rect
         y="236.54111"
         x="277.50153"
         height="73.963326"
         width="136.24823"
         id="rect3022"
         style="fill:#ffffff;fill-opacity:1;stroke:none" />
      <path
         style="fill:#c6c6c6"
         d="m 281.91727,444.92908 c -12.83526,-2.82296 -20.65266,-8.52035 -25.0226,-18.23669 -2.9976,-6.66502 -3.29648,-10.01232 -2.11699,-23.70938 0.35168,-4.08397 1.29189,-8.4212 2.08936,-9.63829 0.79746,-1.21709 2.16646,-6.34265 3.04221,-11.39013 2.24718,-12.95179 8.37858,-29.56647 15.01518,-40.68766 l 5.67101,-9.50312 -5.91825,-6.1777 c -17.28016,-18.03771 -25.05016,-34.33825 -27.84036,-58.40577 -1.42073,-12.25486 -1.42449,-13.95196 -0.038,-17.18482 0.8461,-1.97292 1.66889,-5.38712 1.82842,-7.58712 0.28135,-3.87983 0.18491,-4.01502 -3.20994,-4.5 -5.1154,-0.73077 -4.64459,-3.34723 0.73143,-4.06476 4.87309,-0.6504 4.78369,-0.58541 5.62234,-4.08721 0.57501,-2.40096 0.29571,-2.73225 -2.95069,-3.5 -5.01553,-1.18615 -4.73573,-2.75551 0.59692,-3.34803 4.22304,-0.46923 4.64909,-0.80081 6.92232,-5.38741 2.61205,-5.27022 2.71153,-4.95246 -2.5857,-8.25902 -3.13246,-1.9553 -0.40744,-3.58403 3.51765,-2.10248 3.02506,1.14184 3.41466,1.04731 5.18602,-1.25825 2.64887,-3.44772 2.43922,-5.15926 -1.04029,-8.49284 -2.73785,-2.62303 -3.96417,-5.5 -2.34439,-5.5 0.36058,0 2.13056,1.125 3.93328,2.5 4.1064,3.1321 4.4441,3.11878 7.72402,-0.30472 3.2139,-3.35459 3.31978,-4.57548 0.68709,-7.92241 -3.79183,-4.82053 -1.79494,-7.35244 2.18695,-2.77287 2.61609,3.00877 4.8912,3.17612 7.28087,0.53556 1.67129,-1.84676 1.67948,-2.21015 0.13671,-6.06592 -0.9026,-2.25581 -1.3813,-4.52181 -1.06379,-5.03556 1.12404,-1.81873 2.57948,-0.89059 4.02371,2.56592 1.6448,3.93658 2.45111,4.19113 5.97073,1.88499 2.87024,-1.88065 3.05616,-3.72546 0.89642,-8.89446 -1.55643,-3.72504 -0.95333,-6.05865 1.21437,-4.69889 0.62109,0.3896 1.83186,2.39586 2.69061,4.45836 1.71413,4.11691 3.21578,4.54996 7.71308,2.22432 3.42392,-1.77058 3.48351,-2.10132 1.34257,-7.45205 -1.79789,-4.49337 -1.25422,-7.98255 0.95776,-6.14677 0.72947,0.60541 1.87434,2.92988 2.54415,5.16549 1.48514,4.95698 2.6227,5.47666 7.5143,3.43282 3.3808,-1.41259 3.73478,-1.88761 3.19038,-4.28134 -1.71605,-7.54551 -1.83137,-9.19247 -0.64363,-9.19247 0.66928,0 2.1761,2.27044 3.3485,5.04542 1.84429,4.36531 2.47298,5.0056 4.66397,4.75 2.1255,-0.24796 2.61267,-0.92549 3.03234,-4.21725 0.60204,-4.72221 2.68098,-5.83547 3.54664,-1.89921 1.1375,5.17231 1.37475,5.46272 4.19767,5.13801 2.48004,-0.28526 2.80984,-0.7879 3.29699,-5.02494 0.29772,-2.58938 0.83028,-4.99695 1.18347,-5.35014 1.46566,-1.46566 2.77523,0.96381 2.77523,5.14851 0,7.67453 5.71911,7.33067 7.39208,-0.44445 1.2841,-5.96782 3.60792,-5.49286 3.60792,0.73742 0,4.01188 0.35036,4.97499 1.96323,5.39676 2.15178,0.56271 3.42465,-0.58189 4.48177,-4.03013 0.37938,-1.2375 1.36964,-2.25 2.20059,-2.25 1.13751,0 1.42972,0.92658 1.18261,3.75 -0.29732,3.39716 -0.0829,3.77847 2.27869,4.05261 2.09614,0.24333 2.85461,-0.29545 3.87132,-2.75 1.90253,-4.59311 4.3686,-4.06484 3.55325,0.76116 -0.58347,3.45357 -0.39063,3.92936 2.04177,5.03764 3.16523,1.44218 5.44282,-0.0617 7.45672,-4.9237 1.32185,-3.19125 3.99157,-3.99035 3.93461,-1.17771 -0.0195,0.9625 -0.67854,2.875 -1.46456,4.25 -2.09265,3.66071 -1.83745,4.77414 1.48847,6.49404 2.89437,1.49673 3.0888,1.44951 6.17474,-1.49958 3.80597,-3.63719 5.67141,-2.61078 3.17151,1.74504 -1.47322,2.56693 -1.5402,3.30798 -0.42093,4.65662 1.99209,2.40032 5.61846,1.9667 7.49425,-0.89612 1.71204,-2.61289 4.60806,-3.40507 4.56972,-1.25 -0.0122,0.6875 -0.90222,2.375 -1.97776,3.75 -2.64526,3.38177 -2.50911,4.24748 1.086,6.90546 l 3.086,2.28158 2.22845,-2.09352 c 3.74867,-3.52169 6.00201,-2.53183 3.06775,1.34761 -2.27845,3.01237 -1.78407,4.84454 2.41311,8.94298 3.84128,3.7509 3.91291,3.77366 6.94325,2.20661 4.21596,-2.18016 5.47536,-0.039 1.73248,2.9455 l -2.76558,2.20519 2.35427,4.18209 c 2.30833,4.10048 2.4372,4.1701 6.60427,3.56802 3.26954,-0.4724 4.25,-0.29091 4.25,0.78669 0,0.77042 -1.125,1.91334 -2.5,2.53984 -2.88153,1.31291 -3.11994,3.08244 -0.97432,7.23161 1.30123,2.5163 2.11037,2.95034 5.5,2.95034 4.84735,0 5.33276,2.04877 0.88333,3.72824 -2.84183,1.07267 -3.03387,1.43293 -2.3824,4.46924 0.95976,4.4732 1.11184,4.65165 4.77262,5.60025 3.66004,0.94841 3.89604,2.44988 0.50979,3.24326 -3.03756,0.71169 -3.41576,3.83029 -1.20882,9.96759 1.45857,4.05615 1.56027,5.52672 0.60077,8.68706 -0.63526,2.0924 -1.63589,7.17286 -2.22361,11.28992 -1.51108,10.58522 -7.40025,27.57038 -12.69613,36.61734 -2.57495,4.39879 -8.1929,11.52425 -13.09719,16.61167 -8.11131,8.4142 -8.50994,9.03028 -7.18025,11.09711 6.06659,9.42974 11.34401,18.89914 12.76941,22.91245 1.67031,4.70287 1.75255,4.76828 5.21195,4.14544 4.87206,-0.87718 7.01266,-2.14274 7.02747,-4.15475 0.007,-0.94315 2.51685,-3.91125 5.57758,-6.59578 4.77602,-4.18898 6.53148,-5.06512 12.38242,-6.17996 3.7496,-0.71446 9.09973,-2.45553 11.88918,-3.86905 2.78944,-1.41351 5.87417,-2.56241 6.85496,-2.55309 0.98078,0.009 3.92074,2.02204 6.53324,4.4727 4.61043,4.32483 4.74955,4.62552 4.73469,10.23306 -0.008,3.17751 -0.36923,6.33453 -0.80178,7.01559 -0.43256,0.68106 -3.01317,1.6763 -5.73469,2.21163 -7.16728,1.40983 -10.44327,2.4912 -15.47669,5.10872 -3.81231,1.9825 -5.72018,2.28819 -12.9412,2.07347 -4.65832,-0.13851 -9.02422,-0.71208 -9.70201,-1.27459 -1.39816,-1.16038 -5.32832,-0.23237 -5.32832,1.25814 0,0.53949 -1.42606,1.5805 -3.16903,2.31337 l -3.16903,1.33247 4.26329,2.6913 4.2633,2.6913 -0.34426,13.67795 c -0.30633,12.17048 -0.59664,14.08381 -2.63412,17.36046 -2.75432,4.42947 -9.3709,7.37764 -14.63901,6.52275 -4.93614,-0.80103 -5.70515,0.68554 -5.36315,10.36733 l 0.29201,8.26643 4.30382,1.43176 c 3.0526,1.01552 4.21164,1.91109 3.98675,3.08049 -0.28799,1.49755 -4.9923,1.69765 -51.30382,2.18222 -46.61523,0.48775 -51.37257,0.69235 -55.48675,2.38625 -5.12527,2.1102 -22.81871,3.0704 -29.5,1.60094 z m 83.1408,-51.02068 c 0.26248,0 0.19912,-0.45 -0.1408,-1 -0.98476,-1.59337 -3.5,-1.15716 -3.5,0.60699 0,1.05452 0.5438,1.39831 1.58179,1 0.86998,-0.33385 1.79654,-0.60699 2.05901,-0.60699 z m -2.6408,-5 c 0,-0.55 -0.47656,-1 -1.05902,-1 -0.58246,0 -0.7809,0.45 -0.44098,1 0.33992,0.55 0.81648,1 1.05902,1 0.24254,0 0.44098,-0.45 0.44098,-1 z m 41.41821,-8.60699 c 2.2344,-0.85742 1.96604,-2.39301 -0.41821,-2.39301 -1.11111,0 -2,0.66667 -2,1.5 0,1.68305 0.18315,1.75069 2.41821,0.89301 z m 67.58179,-24.39301 c 0,-0.55 -0.45,-1 -1,-1 -0.55,0 -1,0.45 -1,1 0,0.55 0.45,1 1,1 0.55,0 1,-0.45 1,-1 z m -13,-7 c 0,-0.55 -0.45,-1 -1,-1 -0.55,0 -1,0.45 -1,1 0,0.55 0.45,1 1,1 0.55,0 1,-0.45 1,-1 z m 9,-2.55902 c 0,-0.24254 -0.45,-0.44098 -1,-0.44098 -0.55,0 -1,0.47656 -1,1.05902 0,0.58246 0.45,0.7809 1,0.44098 0.55,-0.33992 1,-0.81648 1,-1.05902 z M 317.14497,296.1786 c -2.07477,-0.21647 -5.22477,-0.21284 -7,0.008 -1.77524,0.22091 -0.0777,0.39803 3.7723,0.39359 3.85,-0.004 5.30246,-0.18518 3.2277,-0.40166 z m 61.0223,10e-4 c -2.0625,-0.21574 -5.4375,-0.21574 -7.5,0 -2.0625,0.21575 -0.375,0.39226 3.75,0.39226 4.125,0 5.8125,-0.17651 3.75,-0.39226 z m -53.12279,-6.75346 c 2.74462,-0.81507 5.95482,-2.50871 7.13378,-3.76365 3.0328,-3.22794 5.23901,-9.00656 5.23901,-13.72197 l 0,-4.03212 -3.97695,0 c -3.13859,0 -4.32225,0.52701 -5.61501,2.5 -1.11567,1.70274 -2.55075,2.5 -4.5,2.5 -1.94925,0 -3.38432,-0.79726 -4.5,-2.5 -1.58941,-2.42575 -1.97816,-2.5 -13.08879,-2.5 -6.2979,0 -12.32115,0.46583 -13.38499,1.03518 -3.21116,1.71856 -2.04055,12.1421 1.91177,17.023 3.40197,4.20126 21.45256,6.23019 30.78118,3.45989 z m 63.7378,-0.56324 c 4.26409,-1.09576 5.09512,-1.75689 6.72804,-5.3525 2.37352,-5.22643 2.5667,-14.13518 0.32516,-14.99534 -0.86998,-0.33352 -7.31383,-0.60666 -14.31966,-0.60666 -12.34075,0 -12.80565,0.0779 -14.9116,2.5 -1.19555,1.375 -2.87319,2.5 -3.72809,2.5 -0.85489,0 -2.59697,-1.125 -3.87128,-2.5 -2.58158,-2.78557 -7.31716,-3.36827 -8.22149,-1.01162 -1.0486,2.7326 1.82137,11.65554 4.86319,15.11998 4.10233,4.67229 10.22891,6.48254 20.27072,5.98947 4.4,-0.21605 10.18925,-0.9554 12.86501,-1.643 z"
         id="path3010"
         inkscape:connector-curvature="0" />
      <path
         style="fill:#b3b3b3"
         d="m 282.91727,444.43945 c -0.55,-0.23607 -3.53507,-1.14382 -6.6335,-2.01722 -3.09842,-0.87341 -7.75033,-3.23722 -10.33757,-5.25293 -8.23123,-6.41289 -13.61172,-20.8184 -10.54291,-28.22716 1.57537,-3.80328 2.36241,-3.79453 5.81052,0.0646 4.05157,4.5345 10.56519,5.15108 14.9995,1.41985 1.76218,-1.4828 3.20396,-3.13503 3.20396,-3.67164 0,-0.53662 -1.35,-2.11162 -3,-3.5 -2.33488,-1.96468 -3,-3.34212 -3,-6.21294 0,-2.02873 0.69159,-4.67599 1.53688,-5.8828 1.45161,-2.07246 1.39312,-2.23028 -1.05429,-2.84454 -2.49455,-0.62609 -6.49501,-0.20888 -11.23259,1.17144 -2.06682,0.60218 -2.25,0.33084 -2.25,-3.33285 0,-5.63293 4.18899,-21.30283 8.21893,-30.74486 1.87796,-4.4 5.75705,-11.76443 8.62021,-16.36539 l 5.20574,-8.36539 -7.36787,-7.71186 c -16.12653,-16.87945 -24.32999,-34.06915 -26.15847,-54.81298 -0.40023,-4.54058 -1.13064,-8.50464 -1.62312,-8.80901 -1.43661,-0.88788 -1.03096,-7.07799 0.54981,-8.38991 0.9554,-0.79292 9.8523,-1.55142 26.25,-2.23795 l 24.80477,-1.03851 5.53111,-3.39153 c 6.69323,-4.10411 10.84093,-5.37747 17.51594,-5.37747 7.07406,0 14.60081,3.9011 18.52154,9.59969 1.66512,2.42017 3.37959,4.40031 3.80993,4.40031 0.43034,0 2.27291,-2.07544 4.09459,-4.61209 5.66331,-7.88602 16.75411,-11.33411 27.00238,-8.39494 1.90426,0.54614 5.95129,2.5173 8.9934,4.38037 l 5.53111,3.3874 24.76351,1.00839 c 16.82678,0.68521 25.23992,1.40379 26.25,2.24208 1.84853,1.53414 1.93815,6.79708 0.15173,8.91005 -0.73412,0.86831 -1.84023,4.98322 -2.45803,9.14426 -3.19053,21.48905 -12.59025,40.51312 -26.94249,54.52887 -3.9956,3.90191 -7.26472,7.38504 -7.26472,7.74028 0,0.35524 2.09013,3.68777 4.64474,7.40561 4.71247,6.85828 11.35526,19.68832 11.35526,21.93182 0,0.67569 -0.73566,1.64022 -1.63481,2.1434 -1.46898,0.82209 -1.41827,1.13142 0.5,3.04969 1.17415,1.17415 2.13481,3.20733 2.13481,4.51818 0,1.56495 0.70687,2.56822 2.05852,2.92168 1.90103,0.49713 2.00582,1.02245 1.36969,6.86663 -0.37885,3.48058 -1.13528,6.89082 -1.68096,7.57832 -1.2733,1.60423 -10.95444,1.64281 -12.54725,0.05 -1.7489,-1.7489 -1.46743,-7.84702 0.46054,-9.97739 2.23632,-2.47112 0.86538,-3.60854 -1.62879,-1.35135 -1.85505,1.67881 -2.14048,1.68752 -4.50613,0.13749 -2.33584,-1.53051 -3.0124,-3.18497 -2.60027,-6.35875 0.18176,-1.39969 -0.40525,-1.49595 -3.71533,-0.60926 -2.20614,0.59097 -2.22515,0.68506 -0.51913,2.57019 1.10024,1.21576 1.73278,3.40852 1.67033,5.79037 -0.0775,2.95415 0.32839,3.94577 1.76913,4.32254 1.62448,0.42481 1.87109,1.51747 1.88066,8.33254 0.0161,11.48471 0.84308,15.04386 4.29824,18.49903 2.8054,2.80539 2.94129,3.26283 1.85872,6.25663 -0.64239,1.77648 -1.16797,6.81188 -1.16797,11.18979 l 0,7.95984 4.25,1.46916 c 2.3375,0.80805 4.25,1.91917 4.25,2.46917 0,0.64634 -17.68305,1.18552 -50,1.52457 -45.92559,0.48183 -50.3667,0.67746 -54.5,2.40071 -3.33174,1.38906 -7.61536,1.96166 -16.5,2.20556 -6.6,0.18118 -12.45,0.13628 -13,-0.0998 z m 31.96165,-31.87935 c 2.10827,-1.5416 1.30032,-3.6517 -1.39822,-3.6517 -2.20385,0 -4.4833,2.51162 -3.5905,3.9562 0.88116,1.42575 2.78105,1.30979 4.98872,-0.3045 z m -2.86391,-5.68886 c 1.92508,-0.73192 2.41533,-1.34977 1.66576,-2.09934 -1.39036,-1.39036 -5.2635,-0.13656 -5.2635,1.70389 0,1.7104 0.10795,1.72227 3.59774,0.39545 z m 31.90226,-5.46284 c 0,-1.31273 -0.77318,-2.10981 -2.25,-2.31955 -1.84568,-0.26213 -2.25,0.15469 -2.25,2.31955 0,2.16486 0.40432,2.58168 2.25,2.31955 1.47682,-0.20974 2.25,-1.00682 2.25,-2.31955 z m -60.07143,-1.07143 c 2.3004,-2.3004 1.92121,-5.15328 -0.93358,-7.02381 -2.01867,-1.32269 -2.79524,-1.40046 -4,-0.40061 -2.06135,1.71077 -1.90192,6.65945 0.25501,7.91575 2.37135,1.38118 2.85707,1.33018 4.67857,-0.49133 z m 26.09789,-2.23544 c -0.30789,-0.30789 -1.11479,-6.4e-4 -1.79313,0.68278 -0.98026,0.98762 -0.8654,1.10248 0.5598,0.5598 0.98622,-0.37553 1.54122,-0.93469 1.23333,-1.24258 z m 48.13336,-1.14422 c 4.8621,-1.62309 12.89018,-4.51031 17.84018,-6.41603 4.95,-1.90572 10.35,-3.98438 12,-4.61923 2.70255,-1.03984 2.81921,-1.25546 1.17661,-2.17473 -1.3813,-0.77303 -2.11506,-0.62156 -3.02638,0.62474 -0.70508,0.96426 -1.87849,1.38598 -2.83505,1.01891 -2.01775,-0.77428 -4.24898,-5.90972 -3.46045,-7.96461 0.65783,-1.71427 -1.08677,-1.98363 -3.35473,-0.51796 -1.07825,0.69682 -1.1342,0.97368 -0.19897,0.98469 0.71556,0.008 1.96339,1.60059 2.77296,3.53815 1.80226,4.31342 0.45879,7.93973 -2.58374,6.97407 -1.1872,-0.37681 -2.64926,0.1621 -3.9391,1.45194 -2.29585,2.29585 -6.26884,2.70191 -7.83856,0.80115 -0.56776,-0.6875 -1.41036,-2.71461 -1.87244,-4.50468 -0.46208,-1.79008 -1.17765,-3.25258 -1.59015,-3.25 -0.4125,0.003 -1.37197,0.005 -2.13216,0.005 -1.16841,0 -1.1752,0.57993 -0.0439,3.75 1.75867,4.92802 1.7424,6.74256 -0.0739,8.25 -1.16088,0.96344 -1.82335,0.97653 -2.93026,0.0579 -1.14294,-0.94856 -1.64822,-0.77975 -2.51526,0.84031 -1.56235,2.91928 -3.57723,1.63999 -5.54908,-3.52322 -0.94447,-2.47307 -1.95666,-4.25705 -2.2493,-3.9644 -0.78435,0.78435 2.21096,11.58943 3.21274,11.58943 0.19294,0 4.32889,-1.32799 9.19098,-2.95109 z M 341.1881,396.0959 c 0.21771,-0.65313 -0.31666,-1.1875 -1.1875,-1.1875 -0.87083,0 -1.58333,0.7125 -1.58333,1.58333 0,1.76593 2.15276,1.45839 2.77083,-0.39583 z m -1.77083,-7.29449 c 0,-1.14261 -2.71175,-1.16842 -3.4138,-0.0325 -0.2925,0.47329 -0.27507,1.11728 0.0388,1.4311 0.78033,0.78039 3.375,-0.29484 3.375,-1.3986 z m 57,-7 c 0,-0.49115 -0.675,-0.89301 -1.5,-0.89301 -0.825,0 -1.5,0.66088 -1.5,1.46862 0,0.89459 0.58629,1.24363 1.5,0.89301 0.825,-0.31659 1.5,-0.97746 1.5,-1.46862 z m -24.8125,-2.57612 c -0.72188,-0.28887 -1.58438,-0.25335 -1.91667,0.0789 -0.33229,0.33229 0.25834,0.56864 1.3125,0.52522 1.16495,-0.048 1.4019,-0.28494 0.60417,-0.60416 z m 13.3125,-4.31689 c 0.78218,-1.2656 -0.54163,-1.2656 -2.5,0 -1.29269,0.8354 -1.26629,0.97149 0.19098,0.98469 0.93004,0.008 1.9691,-0.43469 2.30902,-0.98469 z m 32.5,-1 c 0,-0.55 -0.45,-1 -1,-1 -0.55,0 -1,0.45 -1,1 0,0.55 0.45,1 1,1 0.55,0 1,-0.45 1,-1 z m -26,-1 c 1.33333,-0.86167 1.33333,-0.96327 0,-0.9144 -0.825,0.0302 -2.4,0.44171 -3.5,0.9144 -2,0.85943 -2,0.85943 0,0.9144 1.1,0.0302 2.675,-0.38124 3.5,-0.9144 z m 22.45,-7.12129 c 1.53341,-1.41834 -1.87509,-1.03358 -5.58519,0.63047 l -3.36481,1.50919 4,-0.63048 c 2.2,-0.34676 4.4275,-1.02589 4.95,-1.50918 z m -64.71488,-4.72474 c 1.77932,-2.00969 3.24182,-3.99147 3.25,-4.40397 0.008,-0.4125 -3.99832,-0.75 -8.90333,-0.75 -4.90502,0 -9.63002,-0.27314 -10.5,-0.60699 -2.47275,-0.94888 -1.88312,1.36045 1.57788,6.1798 3.03763,4.22982 3.31766,4.37727 7.25,3.81744 3.0401,-0.4328 4.92098,-1.52051 7.32545,-4.23628 z m -52.40945,-40.84011 c 7.88851,-9.74536 18.5284,-16.24233 30.97291,-18.91283 7.55075,-1.62033 25.66662,-1.79623 32.9022,-0.31948 12.99,2.65121 23.50683,8.0084 27.46585,13.99087 3.55217,5.3677 6.14169,5.84356 11.55007,2.12249 6.4517,-4.43888 10.35332,-8.81639 11.6169,-13.03384 0.61932,-2.06711 3.82176,-6.87596 7.11654,-10.68634 3.29477,-3.81039 6.25948,-8.15266 6.58825,-9.6495 0.32876,-1.49684 1.96187,-4.43236 3.62913,-6.52338 3.48076,-4.36544 6.25509,-9.58031 7.20963,-13.55185 l 0.66095,-2.75 -6.26905,0.0239 c -7.40678,0.0282 -13.75875,1.34143 -14.82383,3.06478 -0.41922,0.6783 -1.29227,4.85838 -1.94012,9.28907 -1.96199,13.4181 -4.69408,16.64049 -16.55219,19.52267 -6.2294,1.51408 -11.09527,1.89687 -22.45291,1.76631 -13.85099,-0.15923 -14.70828,-0.28913 -19.15333,-2.90219 -3.45473,-2.0309 -5.32217,-4.07769 -7.25,-7.94634 -1.42817,-2.86601 -2.59667,-5.99598 -2.59667,-6.95553 0,-0.95955 -0.45,-2.02275 -1,-2.36267 -0.55889,-0.34541 -1,0.42417 -1,1.74464 0,1.29947 -1.1685,4.70755 -2.59667,7.57352 -1.92783,3.86865 -3.79527,5.91544 -7.25,7.94634 -4.49026,2.63964 -5.17898,2.73829 -19.65333,2.8151 -30.53685,0.16206 -36.90988,-3.63677 -39.06722,-23.28716 -0.95485,-8.69734 -2.08043,-9.48349 -14.42948,-10.07814 -5.50182,-0.26493 -10.0033,-0.24393 -10.0033,0.0467 0,0.2906 0.9335,3.5507 2.07446,7.24467 3.38934,10.9734 7.80398,19.23003 12.102,22.63412 2.14456,1.69852 4.82484,4.94943 5.95618,7.22423 1.13134,2.27481 4.15182,6.18859 6.71217,8.6973 2.56035,2.50871 5.55519,6.09192 6.65519,7.96269 1.88806,3.21103 7.69706,7.97602 9.72355,7.97602 0.51028,0 1.90623,-1.20876 3.10212,-2.68614 z m 31.70437,-31.56386 c 5.39072,-2.72331 8.63198,-7.31339 9.56694,-13.54812 0.81926,-5.46325 -0.90188,-13.11389 -3.37051,-14.98222 -4.52775,-3.42674 -31.54361,-7.74136 -35.03633,-5.59555 -0.92958,0.5711 -3.03586,3.4768 -4.68064,6.45713 -2.37509,4.30365 -3.05545,4.97679 -3.30615,3.27103 -0.17361,-1.18126 0.39053,-3.83785 1.25363,-5.90354 0.8631,-2.0657 1.34127,-3.98382 1.06259,-4.26249 -0.82252,-0.82252 -8.29716,1.7342 -9.9749,3.41195 -1.16305,1.16305 -1.54467,3.75846 -1.54467,10.50536 0,12.37329 1.34903,15.27637 8.58604,18.47692 7.99208,3.53448 11.5555,4.20503 22.95207,4.31908 8.54911,0.0855 10.69876,-0.2333 14.49193,-2.14955 z m -7.5923,-17.17187 c -2.54998,-1.86459 -1.41565,-5.02139 1.94263,-5.40631 3.47764,-0.39859 5.03401,0.94722 4.18585,3.61955 -0.78642,2.47777 -3.93004,3.3943 -6.12848,1.78676 z m 73.18327,16.49016 c 10.40868,-3.68117 12.88064,-8.39255 11.74417,-22.38357 -0.69567,-8.56439 -1.74088,-10.00986 -8.16745,-11.29517 -3.62992,-0.72599 -4.06809,0.46394 -1.69773,4.61045 1.52715,2.67147 1.99131,7.00187 0.75,6.99715 -0.4125,-0.002 -2.1,-2.58907 -3.75,-5.75 -2.83365,-5.42847 -3.22562,-5.76371 -7.06885,-6.0458 -5.94719,-0.43651 -23.88626,2.46403 -28.86777,4.66759 -3.64822,1.61378 -4.5402,2.61479 -5.90861,6.63085 -3.22453,9.46349 1.94151,21.06437 10.84523,24.35407 5.03522,1.86039 24.94062,0.75387 32.12101,-1.78557 z m -34.63207,-18.08896 c -1.45553,-2.71967 -0.47376,-3.97933 3.10146,-3.97933 3.35788,0 4.7918,2.23209 2.89903,4.51273 -1.74912,2.10757 -4.72885,1.84269 -6.00049,-0.5334 z m -20.98894,-17.84297 c 0,-1.54729 -5.42129,-6.3831 -8.71788,-7.77636 -1.76984,-0.748 -5.69823,-1.36 -8.72976,-1.36 -5.50864,0 -13.94745,2.55171 -13.08009,3.95513 0.25261,0.40874 3.96219,1.02602 8.24351,1.37175 4.28132,0.34572 10.70922,1.50421 14.28422,2.57442 7.70365,2.30616 8,2.35191 8,1.23506 z m 19.50318,-1.16301 c 3.84825,-1.11465 10.4992,-2.3075 14.7799,-2.65077 4.93494,-0.39573 7.65016,-1.02287 7.41985,-1.7138 -0.57189,-1.71567 -7.62246,-3.44785 -14.3762,-3.53193 -5.31881,-0.0662 -6.63374,0.30294 -9.5,2.66701 -3.67,3.02698 -5.74624,5.35805 -5.79493,6.50614 -0.041,0.96583 -0.60085,1.0615 7.47138,-1.27665 z m 65.57414,118.10397 c -2.94115,-2.94115 -2.68719,-5.88615 0.57827,-6.70573 1.95622,-0.49098 3.00966,-0.1823 4,1.17208 1.22893,1.68066 1.91403,6.45633 0.9262,6.45633 -0.23002,0 -1.09523,0.25979 -1.92268,0.57732 -0.82746,0.31752 -2.43927,-0.35748 -3.58179,-1.5 z m 12.76921,-2.47367 c -1.56331,-1.67692 -3.68258,-10.24089 -2.717,-10.97939 0.20376,-0.15584 2.50465,-2.2143 5.1131,-4.57436 3.87824,-3.50895 5.97118,-4.54855 11.4834,-5.70401 3.70742,-0.77714 9.16512,-2.52289 12.12821,-3.87944 2.9631,-1.35655 6.13937,-2.46645 7.05839,-2.46645 0.91903,0 3.56465,1.92953 5.87916,4.28785 3.94235,4.01696 4.20821,4.645 4.20821,9.94098 0,3.42838 -0.49193,5.96856 -1.25,6.45463 -0.6875,0.44082 -3.85612,1.34291 -7.04137,2.00465 -3.18526,0.66174 -8.36026,2.42865 -11.5,3.92648 -4.65297,2.21972 -7.17744,2.73831 -13.65143,2.80437 -6.57659,0.0671 -8.24689,-0.24514 -9.71067,-1.81531 z m 17.15347,-4.60365 c 0,-2.07031 -2.41251,-2.7596 -3.5,-1 -0.83704,1.35436 0.29243,3 2.05902,3 0.79254,0 1.44098,-0.9 1.44098,-2 z m 9.32411,-2.40223 c 0.62758,-1.63544 -0.1099,-2.59777 -1.99078,-2.59777 -0.73333,0 -1.33333,0.9 -1.33333,2 0,2.27384 2.50788,2.72483 3.32411,0.59777 z m 9.17589,-3.59777 c 0,-0.80994 -0.7875,-1.62427 -1.75,-1.80963 -1.22785,-0.23646 -1.75,0.30348 -1.75,1.80963 0,1.50615 0.52215,2.04609 1.75,1.80963 0.9625,-0.18536 1.75,-0.99969 1.75,-1.80963 z m -22.5,-4.58333 c 0,-1.76593 -2.15276,-1.45839 -2.77083,0.39583 -0.21771,0.65312 0.31666,1.1875 1.1875,1.1875 0.87083,0 1.58333,-0.7125 1.58333,-1.58333 z m 10,-1.85765 c 0,-1.95514 -1.93837,-3.02065 -3.2,-1.75902 -0.56415,0.56415 -0.72339,1.51494 -0.35385,2.11287 0.98021,1.58602 3.55385,1.32977 3.55385,-0.35385 z m 8.55385,-1.64615 c 1.03052,-1.66742 -1.28721,-3.57951 -2.66672,-2.2 -1.15392,1.15392 -0.43172,3.28713 1.11287,3.28713 0.48508,0 1.18431,-0.48921 1.55385,-1.08713 z M 286.41727,239.60418 c 0,-2.17785 5.45009,-10.0544 9.0819,-13.12527 6.84577,-5.78846 13.37435,-7.96798 25.15718,-8.39857 9.29481,-0.33966 10.8244,-0.17008 11.37354,1.26094 0.9452,2.46316 0.19686,2.7704 -8.83318,3.6266 -13.16352,1.24812 -21.66476,5.06761 -29.73765,13.36071 -4.43291,4.55383 -7.04179,5.76739 -7.04179,3.27559 z m 146.14624,-0.0196 c -0.80229,-0.96669 -0.78137,-1.64108 0.0776,-2.5 1.46081,-1.4608 3.31352,-1.4942 5.90652,-0.10647 1.59618,0.85426 1.75971,1.35785 0.81181,2.5 -1.49025,1.79565 -5.34388,1.85603 -6.79588,0.10647 z m -182.71534,-2.788 c -0.7252,-1.1734 1.20838,-2.84703 3.3191,-2.87289 0.6875,-0.008 1.25,0.88469 1.25,1.98469 0,2.18691 -3.36248,2.84055 -4.5691,0.8882 z m 135.5691,-2.57326 c -10.4193,-3.51244 -23.8161,-3.67934 -32.81602,-0.40884 -3.47381,1.26236 -6.60789,2.00332 -6.96463,1.64659 -1.32361,-1.32362 1.54567,-4.1353 7.05764,-6.91594 10.01954,-5.05461 22.65115,-4.6715 34.31725,1.04083 10.80806,5.29219 9.72175,8.45209 -1.59424,4.63736 z m 45.0136,-6.30653 c -1.95394,-1.20761 -0.4061,-4.01062 2.20502,-3.9931 3.39659,0.0228 5.22811,1.38809 3.57871,2.66773 -2.14328,1.66279 -4.40074,2.1801 -5.78373,1.32537 z m -176.2636,-1.08851 c -2.48091,-1.44499 -2.17135,-2.59733 0.90514,-3.36948 3.01507,-0.75674 4.87599,1.10468 3.16521,3.16604 -1.26434,1.52344 -1.76139,1.54829 -4.07035,0.20344 z m 171.91667,-10.58657 c -0.36667,-0.36666 -0.66667,-1.49166 -0.66667,-2.5 0,-1.35895 0.7551,-1.83333 2.91821,-1.83333 1.60502,0 3.70736,-0.30282 4.67186,-0.67294 0.96451,-0.37011 0.25957,0.75489 -1.56652,2.5 -3.42703,3.27505 -4.21803,3.64513 -5.35688,2.50627 z m -166.72431,-4.89566 -2.44236,-2.60076 3.5,0.33155 c 2.66729,0.25266 3.5,0.78755 3.5,2.24821 0,2.90742 -1.83905,2.91589 -4.55764,0.021 z m 7.09282,-9.37193 c -1.42701,-2.66639 -1.31728,-3.06574 0.84237,-3.06574 2.25211,0 4.55304,2.49428 3.64952,3.9562 -1.0328,1.6711 -3.36881,1.20802 -4.49189,-0.89046 z M 416.9671,202.989 c -0.82615,-1.33674 2.25846,-4.08062 4.58734,-4.08062 1.09687,0 2.94185,-0.50711 4.09996,-1.12691 1.30839,-0.70023 0.77196,0.24635 -1.41676,2.5 -3.44505,3.54726 -6.13294,4.54822 -7.27054,2.70753 z M 275.39209,191.1584 c -0.53663,-1.5125 -1.43856,-3.55232 -2.0043,-4.53294 -0.83497,-1.44729 -0.31718,-1.33398 2.75043,0.60189 4.33304,2.73445 5.70577,6.68105 2.32385,6.68105 -1.3815,0 -2.42638,-0.93597 -3.06998,-2.75 z m 131.6259,0.91297 c -0.75465,-1.22105 2.26574,-5.16297 3.95598,-5.16297 1.74849,0 1.90743,3.13587 0.2433,4.8 -1.3919,1.3919 -3.45325,1.57008 -4.19928,0.36297 z m -122.0201,-4.72521 c -0.86934,-0.86934 -1.58062,-2.86167 -1.58062,-4.4274 0,-1.56573 -0.30282,-3.63593 -0.67294,-4.60043 -0.37011,-0.96451 0.75489,-0.25957 2.5,1.56652 3.06372,3.20589 4.15255,7.30008 2.25356,8.47372 -0.50566,0.31252 -1.63066,-0.14307 -2.5,-1.01241 z m 113.41938,-5.91208 c 0,-0.81088 1.32636,-2.16021 2.94746,-2.99851 l 2.94746,-1.52419 -1.04528,2.99851 c -1.0919,3.13223 -4.84964,4.31325 -4.84964,1.52419 z M 295.58824,180.1584 c -0.49467,-0.9625 -1.13744,-3.62342 -1.42838,-5.91315 l -0.52898,-4.16315 2.79714,3.18576 c 2.6839,3.05679 3.36499,4.6765 3.10773,7.39054 -0.17618,1.85873 -2.91345,1.51202 -3.94751,-0.5 z m 93.4957,-2.91667 c -1.42546,-1.42545 -0.54339,-3.34572 2.18489,-4.75657 2.82525,-1.46099 2.84695,-1.4497 2.35097,1.22432 -0.63273,3.41137 -2.89502,5.1731 -4.53586,3.53225 z m -82,-4 c -0.36667,-0.36666 -0.66667,-2.26894 -0.66667,-4.22727 l 0,-3.5606 2.64035,2.64034 c 1.62034,1.62035 2.40509,3.2534 2.03138,4.22727 -0.62149,1.61959 -2.8042,2.12112 -4.00506,0.92026 z m 71.6616,-1.92026 c -0.37618,-0.98031 0.42377,-2.60491 2.09268,-4.25 l 2.70165,-2.66307 -0.64482,3 c -1.02844,4.78473 -1.35067,5.5 -2.47778,5.5 -0.58452,0 -1.3368,-0.71412 -1.67173,-1.58693 z m -10.6616,-2.07974 c -1.2666,-1.26659 -0.65817,-3.55472 1.68602,-6.34063 l 2.35268,-2.79601 -0.27585,3.87283 c -0.37486,5.26286 -1.78758,7.23909 -3.76285,5.26381 z m -48.08236,-1.97421 c -0.34631,-0.90248 -0.36424,-2.47714 -0.0398,-3.49924 0.86253,-2.71759 4.45553,-0.56019 4.45553,2.6753 0,2.87894 -3.38475,3.51051 -4.41569,0.82394 z m 37.9182,0.64494 c -0.75252,-1.21759 1.56836,-6.21696 3.12017,-6.72111 1.5667,-0.50899 2.48097,3.65487 1.2908,5.87872 -1.06609,1.99201 -3.42236,2.44199 -4.41097,0.84239 z m -29.4872,-3.25406 c 0.008,-1.2375 0.45842,-2.925 1,-3.75 0.87528,-1.33333 1.0941,-1.33333 1.96938,0 1.76137,2.68315 1.21703,6 -0.98469,6 -1.41194,0 -1.9955,-0.66156 -1.98469,-2.25 z m 10.98469,-0.0589 c 0,-1.26988 0.60692,-3.13889 1.34872,-4.15335 1.26636,-1.73185 1.40967,-1.66719 2.34701,1.05887 1.25546,3.65124 0.67858,5.40335 -1.77906,5.40335 -1.33547,0 -1.91667,-0.70013 -1.91667,-2.30887 z m 10,0.005 c 0,-3.13083 2.6904,-5.66615 3.57274,-3.36681 0.94609,2.46549 0.0586,5.11835 -1.83422,5.48288 -1.26953,0.24453 -1.73852,-0.32631 -1.73852,-2.11603 z"
         id="path3008"
         inkscape:connector-curvature="0" />
      <path
         inkscape:connector-curvature="0"
         id="path3026"
         d="m 343.12311,385.02388 94.53959,-28.91799 5.00504,-7.2295 27.24965,-7.78562 7.2295,17.23958 -23.91296,8.34173 -15.57123,1.11223 -88.42232,33.92303 z"
         style="fill:#ffffff;stroke:#ffffff;stroke-width:1px;stroke-linecap:butt;stroke-linejoin:miter;stroke-opacity:1" />
      <path
         style="fill:#909090"
         d="m 279.74132,442.98066 c -3.94677,-1.06937 -8.44677,-2.60971 -10,-3.42297 -7.78188,-4.07454 -14.29805,-15.38237 -14.31428,-24.84027 -0.005,-3.13004 0.4768,-5.9917 1.07149,-6.35924 0.59469,-0.36754 2.38474,0.58055 3.97787,2.10687 2.25163,2.1572 4.12132,2.8767 8.39674,3.23125 5.22061,0.43293 5.6791,0.27713 9.02213,-3.06589 1.9371,-1.93711 3.522,-4.16357 3.522,-4.9477 0,-0.78412 1.125,-2.48256 2.5,-3.77431 4.22814,-3.97214 3.39954,-7.29601 -2.85351,-11.44655 -4.41729,-2.93203 -6.265,-3.55345 -10.56574,-3.55345 -2.86673,0 -6.08933,0.46941 -7.16133,1.04312 -1.4703,0.78689 -2.07915,0.7042 -2.47854,-0.33659 -0.89677,-2.33695 3.28851,-19.2822 7.14029,-28.90941 3.55171,-8.87721 12.42728,-25.06628 14.41646,-26.29565 0.54206,-0.33502 2.96494,0.75273 5.38419,2.41722 7.26609,4.9992 18.5221,10.26163 29.11818,13.61337 9.35597,2.95948 10.14188,3.4164 12.20307,7.09467 1.21168,2.1623 3.68668,5.60383 5.5,7.64783 3.21224,3.62091 3.42358,3.69716 8.22764,2.96846 4.67498,-0.70912 5.16014,-1.0849 9.3542,-7.24546 4.40535,-6.47093 4.45482,-6.50588 12.06929,-8.5285 4.20519,-1.11702 14.70874,-5.54626 23.34121,-9.84276 8.63248,-4.29649 16.21373,-7.49147 16.84722,-7.09995 3.17,1.95916 14.92605,22.93183 14.9476,26.66635 0.008,1.30266 -3.6195,2.88049 -15.74023,6.84733 -17.39942,5.69445 -58.17233,19.79393 -59.3565,20.52579 -0.41361,0.25563 0.15746,3.15789 1.26904,6.44948 1.40055,4.14723 2.5387,5.9847 3.70701,5.9847 2.54881,0 14.7352,-4.14953 33.54909,-11.42363 12.80878,-4.95233 17.24205,-6.27293 18.25,-5.43641 0.93407,0.77521 1.33136,3.88386 1.33136,10.41739 0,10.36379 0.88383,13.63935 4.78307,17.72643 2.26739,2.37662 2.47748,3.06937 1.43638,4.73643 -1.64885,2.64023 -1.62475,17.4145 0.0306,18.72307 0.6875,0.5435 2.6,1.4236 4.25,1.95578 1.65,0.53218 3,1.38011 3,1.88427 0,0.53594 -20.76716,1.14712 -50,1.47152 -44.20836,0.49057 -50.63708,0.76076 -55.5,2.33261 -8.45915,2.73427 -21.99659,3.03647 -30.67595,0.6848 z m 36.19125,-29.45979 c 1.8538,-1.35553 1.84252,-1.55734 -0.48894,-8.75 -1.31258,-4.04936 -2.73044,-7.76493 -3.1508,-8.25684 -0.44144,-0.51656 -2.08975,-0.34534 -3.90207,0.40535 -2.91295,1.20658 -3.09053,1.55729 -2.47829,4.89437 0.36273,1.97706 1.35149,5.73215 2.19726,8.34465 1.66448,5.14146 4.01074,6.14995 7.82284,3.36247 z m 27.90291,-9.21946 c 2.12698,-0.8162 1.97765,-2.71442 -0.81763,-10.39301 -2.39169,-6.56995 -4.33205,-8.1588 -7.4743,-6.12025 -1.30896,0.8492 -0.59509,4.19634 3.3848,15.87025 0.46138,1.35335 2.39556,1.60679 4.90713,0.64301 z m 5.06387,-11.09014 c -1.68429,-4.03107 -1.33512,-6.56744 0.79173,-5.75129 1.64177,0.63 4.09499,7.04267 3.22979,8.44259 -1.16571,1.88616 -2.47506,1.0099 -4.02152,-2.6913 z m 5.50696,-1.55287 c -2.25164,-3.69295 -2.26583,-3.76492 -1.1039,-5.59839 1.4871,-2.34659 4.55001,-0.8272 5.74218,2.84847 2.08454,6.42698 -1.20663,8.37823 -4.63828,2.74992 z m 10.03673,-2.9396 c -1.11006,-1.82072 -2.01998,-3.85707 -2.02203,-4.52522 -0.005,-1.7654 3.67683,-3.45781 6.73792,-3.09683 2.06128,0.24308 2.8352,1.0592 3.51736,3.70913 0.96067,3.73185 -0.0366,5.37168 -3.98699,6.55559 -1.79762,0.53875 -2.61781,0.0283 -4.24626,-2.64267 z m 9.49429,-4.41663 c -1.67108,-3.99946 -1.30461,-5.39377 1.41764,-5.39377 2.07211,0 4.61189,5.1254 3.70757,7.48204 -1.02417,2.66894 -3.57112,1.63119 -5.12521,-2.08827 z m 36.91044,0.18532 c -0.33419,-1.33149 -0.44925,-3.24322 -0.25569,-4.24829 0.43584,-2.26311 7.34628,-6.1415 11.13646,-6.25019 2.78527,-0.0799 2.80531,-0.0367 2.16594,4.66939 -1.13703,8.36922 -1.0355,8.25 -7.02555,8.25 -4.89331,0 -5.47195,-0.23265 -6.02116,-2.42091 z m -29.45525,-2.14419 c -1.37589,-3.61886 -1.2123,-5.4349 0.48957,-5.4349 1.73288,0 3.53518,3.02538 3.53518,5.93426 0,2.9385 -2.85222,2.58462 -4.02475,-0.49936 z m 5.08278,-2.35341 c -1.89485,-2.66106 -1.93866,-3.058 -0.49667,-4.5 0.86982,-0.86982 2.42818,-1.58149 3.46302,-1.58149 1.03483,0 3.07698,-0.54469 4.53811,-1.21043 2.30736,-1.0513 2.84497,-0.95282 4.08944,0.7491 0.78806,1.07774 1.30127,3.08493 1.14046,4.46043 -0.23716,2.02848 -0.84255,2.5009 -3.20487,2.5009 -1.60187,0 -3.10187,0.5625 -3.33334,1.25 -0.74784,2.22121 -4.06188,1.32881 -6.19615,-1.66851 z m 17.39515,-5.5126 c -2.13223,-3.2542 -1.23021,-5.81385 1.90406,-5.40312 1.30059,0.17043 3.0546,-0.26267 3.89779,-0.96246 1.25633,-1.04266 1.82298,-0.98244 3.13902,0.3336 1.4746,1.4746 1.60595,1.43396 1.60595,-0.49687 0,-2.88616 2.93983,-3.84281 4.64461,-1.51139 2.00056,2.73593 1.74392,6.47135 -0.44461,6.47135 -0.99,0 -2.34,-0.54 -3,-1.2 -0.93333,-0.93333 -1.2,-0.83534 -1.2,0.44098 0,2.39352 -1.61281,3.00336 -3.34961,1.26655 -1.3478,-1.3478 -1.54536,-1.26896 -1.83062,0.73059 -0.45388,3.18149 -3.38053,3.36187 -5.36659,0.33077 z m 19.582,-6.50315 c -1.72206,-3.2177 -1.24624,-5.06574 1.3043,-5.06574 2.40352,0 5.26103,4.21933 4.11421,6.07494 -1.00051,1.61885 -4.34543,0.99585 -5.41851,-1.0092 z m 20.64403,0.13696 c -6.64811,-0.28978 -6.85526,-0.37979 -8.1821,-3.55538 -3.10839,-7.43942 -3.02406,-7.81093 2.94199,-12.96164 4.65861,-4.02196 6.5334,-4.95412 11.79975,-5.86695 3.44363,-0.59688 8.83582,-2.37528 11.98263,-3.95199 3.14682,-1.57671 6.08163,-2.86674 6.5218,-2.86674 0.44017,0 2.928,1.95343 5.52852,4.34096 4.41347,4.05201 4.72718,4.66773 4.71289,9.25 -0.008,2.69997 -0.34592,5.39359 -0.75,5.98582 -0.40408,0.59223 -4.10969,1.8828 -8.23469,2.86792 -4.125,0.98512 -9.20283,2.65504 -11.28406,3.71092 -5.90169,2.99413 -7.73382,3.36539 -15.03673,3.04708 z m 10.32079,-6.76613 c 0,-1.78069 -1.47688,-2.57454 -3.40976,-1.83283 -1.88612,0.72378 -2.12705,4.03674 -0.34024,4.67865 1.56523,0.56231 3.75,-1.09569 3.75,-2.84582 z m 8.63977,-3.93294 c -0.34855,-0.90829 -1.41741,-1.50052 -2.37526,-1.31605 -2.16768,0.41745 -2.93094,3.7824 -1.1129,4.90643 1.80545,1.11625 4.30643,-1.45801 3.48816,-3.59038 z m 8.86023,-1.57327 c 0,-1.49507 -0.66234,-2.53052 -1.75302,-2.74057 -2.24877,-0.43307 -3.35115,2.3773 -1.70877,4.35625 1.73347,2.0887 3.46179,1.28207 3.46179,-1.61568 z m -22,-4.44406 c 0,-2.79806 -2.92896,-2.48798 -3.33121,0.35266 -0.25684,1.81382 0.0799,2.25979 1.5,1.98631 1.04197,-0.20067 1.83121,-1.20874 1.83121,-2.33897 z m 10,-1.9863 c 0,-1.31273 -0.77318,-2.10981 -2.25,-2.31955 -1.84568,-0.26213 -2.25,0.15469 -2.25,2.31955 0,2.16486 0.40432,2.58168 2.25,2.31955 1.47682,-0.20974 2.25,-1.00682 2.25,-2.31955 z m 8.5,-2.54797 c 0,-2.62332 -1.92684,-3.45376 -3.76006,-1.62054 -1.26243,1.26243 -1.32695,1.85875 -0.33092,3.05888 1.55882,1.87827 4.09098,0.988 4.09098,-1.43834 z M 332.77593,331.40068 c -1.42405,-3.71104 7.64442,-11.27321 11.87619,-9.90351 1.24583,0.40323 4.0931,0.64436 6.32727,0.53584 4.48304,-0.21776 8.16022,2.55062 7.09055,5.33814 -0.5745,1.49711 -3.73912,2.11747 -4.89669,0.9599 -0.31754,-0.31755 -3.04622,-0.72802 -6.06373,-0.91217 -4.96772,-0.30315 -5.75013,-0.0595 -8.2764,2.57736 -3.08266,3.21759 -5.17523,3.70278 -6.05719,1.40444 z m -40.35866,-39.10154 c -11.41868,-2.47424 -14.64277,-6.25902 -16.43485,-19.29298 -0.69551,-5.05844 -1.746,-9.6786 -2.33442,-10.26703 -1.58417,-1.58416 -8.7374,-2.7379 -17.28073,-2.78718 -7.93655,-0.0458 -9.96107,-0.96149 -9.93469,-4.49355 0.0352,-4.71679 0.29437,-4.7699 29.63205,-6.07361 30.33772,-1.34815 42.89946,-0.79407 54.65522,2.41076 12.65218,3.44921 14.69065,3.50066 25.20523,0.63617 13.65546,-3.72016 23.62058,-4.37225 50.99219,-3.33679 33.06624,1.25087 34.36043,1.4092 35.08401,4.29216 0.32233,1.28426 0.11654,3.21233 -0.45732,4.28458 -0.90691,1.69458 -2.46464,2.01692 -11.91066,2.46464 -15.40566,0.7302 -15.391,0.71854 -17.21335,13.68578 -1.1121,7.9133 -3.51807,12.88353 -7.49938,15.49219 -7.04027,4.61296 -38.82736,6.44706 -47.04467,2.71446 -5.47101,-2.48514 -9.14431,-7.13697 -11.22379,-14.2137 -0.95416,-3.24713 -1.99856,-5.90449 -2.32089,-5.90525 -0.32233,-7.7e-4 -1.32331,2.6504 -2.22441,5.89147 -1.95257,7.023 -5.63574,11.72353 -11.14817,14.22748 -3.33823,1.51634 -6.47716,1.82209 -18.04137,1.75729 -7.9832,-0.0447 -16.79352,-0.68376 -20.5,-1.48689 z m 36.64923,-3.17455 c 5.02264,-2.60744 8.02221,-7.18187 9.41031,-14.35098 1.40075,-7.23447 -0.42611,-13.59983 -4.59293,-16.00325 -7.47647,-4.31241 -36.3614,-7.21308 -45.49495,-4.56868 -5.81514,1.68364 -6.93885,4.05965 -6.95536,14.70672 -0.0217,13.97029 2.39744,16.78254 18.06752,21.00366 9.98369,2.68936 23.5649,2.32762 29.56541,-0.78747 z m -8.64435,-18.71031 c -1.71285,-2.06385 -0.0899,-3.79609 3.12978,-3.34054 1.58712,0.22455 2.36534,0.99268 2.36534,2.33466 0,2.53247 -3.67055,3.20436 -5.49512,1.00588 z m 73.96513,17.84778 c 11.18564,-3.7686 12.52836,-5.83475 12.34429,-18.99514 -0.16002,-11.44044 -0.59478,-12.81171 -4.59755,-14.50097 -4.54503,-1.91812 -26.06154,-1.64438 -35.97822,0.45771 -10.2404,2.17072 -13.55166,3.99324 -15.43216,8.49391 -2.95243,7.06617 0.42686,20.00425 6.21557,23.79716 8.22187,5.38718 22.81223,5.67835 37.44807,0.74733 z m -33.89589,-17.76435 c -1.6492,-1.98717 -0.54004,-3.58931 2.4849,-3.58931 1.77431,0 2.44098,0.54623 2.44098,2 0,1.1 -0.1882,2 -0.41821,2 -0.23002,0 -1.05792,0.24548 -1.83979,0.54551 -0.78186,0.30003 -1.98241,-0.13026 -2.66788,-0.9562 z m 74.19671,-32.19348 c 0.33229,-0.33229 1.19479,-0.36781 1.91667,-0.079 0.79773,0.31923 0.56078,0.55619 -0.60417,0.60417 -1.05416,0.0434 -1.64479,-0.19293 -1.3125,-0.52522 z m -145.27083,-1.624 c 0,-4.50362 11.10249,-13.83388 19.39021,-16.29507 5.07942,-1.50843 17.72081,-2.03241 18.96703,-0.78618 0.37982,0.37981 -3.43974,1.52501 -8.48792,2.54487 -10.93986,2.21013 -17.85112,5.40642 -24.76181,11.45172 -2.86179,2.50342 -5.10751,3.85972 -5.10751,3.08466 z m 60.50883,-4.78612 c 0.34478,-0.55786 2.50884,-2.00227 4.80902,-3.2098 3.38206,-1.77549 5.90395,-2.20321 13.18215,-2.23571 7.78931,-0.0348 9.79398,0.33167 14.90228,2.72419 3.24625,1.52042 5.65582,3.01085 5.3546,3.31207 -0.30122,0.30122 -3.95078,-0.15526 -8.11012,-1.0144 -9.35602,-1.93253 -15.3944,-1.95394 -23.14676,-0.0821 -7.27953,1.75772 -7.78766,1.79447 -6.99117,0.50572 z m 82.49117,-5.92669 c 0,-0.58246 0.45,-1.05902 1,-1.05902 0.55,0 1,0.19844 1,0.44098 0,0.24254 -0.45,0.7191 -1,1.05902 -0.55,0.33992 -1,0.14148 -1,-0.44098 z m -5,-12.05902 c 0,-0.55 0.70156,-1 1.55902,-1 0.85746,0 1.2809,0.45 0.94098,1 -0.33992,0.55 -1.04148,1 -1.55902,1 -0.51754,0 -0.94098,-0.45 -0.94098,-1 z m -8,-11.81854 c 0,-1.20855 1.8972,-2.61759 2.5907,-1.9241 0.2517,0.2517 -0.22824,1.02686 -1.06653,1.72258 -0.95039,0.78875 -1.52417,0.86461 -1.52417,0.20152 z m -143,-11.74048 c 0,-0.85746 0.45,-1.2809 1,-0.94098 0.55,0.33992 1,1.04148 1,1.55902 0,0.51754 -0.45,0.94098 -1,0.94098 -0.55,0 -1,-0.70156 -1,-1.55902 z m 8.34508,-5.98411 c -0.80982,-2.11034 0.54185,-3.2497 1.69398,-1.42791 1.22421,1.93575 1.19966,2.97104 -0.0704,2.97104 -0.56726,0 -1.29785,-0.69441 -1.62353,-1.54313 z m 11.131,-6.53223 c -0.36228,-1.14145 -0.36814,-2.36592 -0.013,-2.72104 0.74946,-0.74946 2.49914,1.71128 2.52162,3.5464 0.0248,2.02669 -1.79325,1.42852 -2.50861,-0.82536 z m 94.52392,-2.86562 c 0,-0.58246 0.45,-1.05902 1,-1.05902 0.55,0 1,0.19844 1,0.44098 0,0.24254 -0.45,0.7191 -1,1.05902 -0.55,0.33992 -1,0.14148 -1,-0.44098 z m -82.41705,-3.9248 c -0.43077,-0.69701 -0.51316,-1.53734 -0.18309,-1.86742 0.89497,-0.89496 1.87077,0.42131 1.38739,1.87145 -0.33872,1.01617 -0.57427,1.01538 -1.2043,-0.004 z m 60.41705,-4.0752 c 0,-0.51754 0.45,-1.2191 1,-1.55902 0.55,-0.33992 1,0.0835 1,0.94098 0,0.85746 -0.45,1.55902 -1,1.55902 -0.55,0 -1,-0.42344 -1,-0.94098 z m -47,-1.61804 c 0,-0.85746 0.45,-1.2809 1,-0.94098 0.55,0.33992 1,1.04148 1,1.55902 0,0.51754 -0.45,0.94098 -1,0.94098 -0.55,0 -1,-0.70156 -1,-1.55902 z m 38,0.17705 c 0,-0.825 0.45,-1.77811 1,-2.11803 0.55,-0.33992 1,0.057 1,0.88197 0,0.825 -0.45,1.77811 -1,2.11803 -0.55,0.33992 -1,-0.057 -1,-0.88197 z m -30,-1.61803 c 0,-0.55 0.45,-1 1,-1 0.55,0 1,0.45 1,1 0,0.55 -0.45,1 -1,1 -0.55,0 -1,-0.45 -1,-1 z m 11.54271,0.0691 c -0.31644,-0.512 -0.11799,-1.21355 0.44098,-1.55902 0.55897,-0.34546 1.01631,0.0734 1.01631,0.9309 0,1.75653 -0.60006,2.01516 -1.45729,0.62812 z"
         id="path3006"
         inkscape:connector-curvature="0" />
      <path
         style="fill:#707070"
         d="m 282.91727,443.43945 c -0.55,-0.23607 -3.65279,-1.17804 -6.89508,-2.09327 -7.1227,-2.01058 -13.62791,-7.57623 -17.28084,-14.78494 -2.71728,-5.36229 -4.01858,-14.27622 -2.42725,-16.62664 0.85461,-1.26225 1.32834,-1.17253 3.3005,0.62504 7.65974,6.98169 17.37929,5.50739 21.78407,-3.30429 0.78272,-1.56582 2.49197,-4.03296 3.79833,-5.48252 3.78976,-4.20521 2.75818,-7.51361 -3.77973,-12.12197 -5.3782,-3.79091 -5.66056,-3.86753 -12.75,-3.4598 -6.35398,0.36543 -7.25,0.2042 -7.25,-1.30462 0,-3.49709 4.92083,-20.9713 7.90724,-28.07919 3.98665,-9.48849 12.10263,-22.89885 13.85844,-22.89885 0.75227,0 2.83593,1.11982 4.63035,2.4885 4.6857,3.57395 21.15418,11.07256 30.09387,13.70266 7.40765,2.17937 7.78996,2.44704 12.07839,8.45674 6.43942,9.02404 6.74042,9.24715 11.66079,8.64297 5.73266,-0.70392 7.7044,-2.09596 12.18627,-8.60343 3.6369,-5.28063 4.08861,-5.58458 10.44299,-7.02699 3.94917,-0.89644 13.2014,-4.78175 22.82282,-9.58404 8.89964,-4.44202 16.44623,-8.07641 16.77019,-8.07641 0.94366,0 9.82488,14.07244 12.43444,19.70256 1.31218,2.83104 2.12226,5.83407 1.80018,6.6734 -0.35686,0.92996 -7.14789,3.65799 -17.38578,6.98403 -9.24011,3.00189 -25.80019,8.56251 -36.80019,12.35694 -12.77484,4.40665 -21.52549,6.88623 -24.22273,6.86374 -6.12991,-0.0511 -6.8061,1.0884 -4.78052,8.05616 3.36686,11.58157 6.09924,13.85809 10.88682,9.07051 1.26096,-1.26096 5.178,-3.14227 8.70454,-4.18069 3.52654,-1.03842 15.09687,-5.19439 25.71184,-9.23549 10.61498,-4.04109 19.72748,-7.08323 20.25,-6.76029 0.52253,0.32294 0.95005,5.09019 0.95005,10.59389 0,10.19308 0.62686,12.59469 4.35487,16.68442 1.91828,2.1044 2.07634,3.27476 1.78241,13.19787 l -0.32254,10.8887 3.84263,1.80213 c 3.776,1.77087 2.99295,1.81079 -45.15737,2.30212 -45.05668,0.45976 -49.36214,0.65156 -53.5,2.38328 -3.32916,1.39327 -7.62223,1.97352 -16.5,2.23013 -6.6,0.19077 -12.45,0.15371 -13,-0.0824 z m 32.95295,-28.69157 c 1.48211,-0.67529 2.54705,-1.98906 2.54705,-3.14218 0,-3.82674 -4.04022,-15.49876 -5.56773,-16.08492 -2.13708,-0.82007 -8.43227,1.96553 -8.43227,3.73126 0,1.45971 3.83099,14.5175 4.66673,15.90636 0.66592,1.10666 3.88359,0.91201 6.78622,-0.41052 z m 33.64488,-21.9887 c -0.60381,-1.73208 -1.09783,-3.6285 -1.09783,-4.21429 0,-1.91771 2.85192,1.79632 3.5426,4.61351 0.94189,3.84181 -1.08153,3.51139 -2.44477,-0.39922 z m 6.10501,-0.10637 c -0.57313,-0.69058 -1.35201,-2.49058 -1.73085,-4 -0.58001,-2.31095 -0.37125,-2.74441 1.32178,-2.74441 1.79679,0 4.20623,4.09526 4.20623,7.14922 0,1.29429 -2.61874,1.0151 -3.79716,-0.40481 z m 9.86986,-3.15681 c -0.6447,-0.77682 -1.2623,-2.6456 -1.37244,-4.15286 -0.16445,-2.25044 0.32084,-2.88432 2.71406,-3.54506 3.66118,-1.0108 4.266,-0.62167 5.12705,3.29869 0.53635,2.44198 0.2817,3.46783 -1.11419,4.48854 -2.32594,1.70077 -3.8905,1.67467 -5.35448,-0.0893 z m 9.012,-5.77447 c -0.7957,-2.28255 -0.80436,-3.48856 -0.0305,-4.25 1.40504,-1.38252 3.9458,1.91947 3.9458,5.128 0,3.4123 -2.62489,2.82367 -3.9153,-0.878 z m 37.2871,-0.46791 c -0.92454,-3.68364 0.37591,-5.26009 6.14733,-7.45196 2.73948,-1.0404 5.11376,-1.892 5.27618,-1.89245 0.16243,-4.4e-4 0.024,1.68669 -0.30761,3.74919 -1.37686,8.5636 -1.14926,8.25 -5.9877,8.25 -3.99474,0 -4.53166,-0.27796 -5.1282,-2.65478 z m -30.21128,-1.89227 c -1.46573,-3.21691 -1.45349,-3.45295 0.17896,-3.45295 1.10238,0 3.66052,3.87654 3.66052,5.54705 0,1.5815 -2.88063,0.0104 -3.83948,-2.0941 z m 6.25258,-0.94523 c -1.82329,-2.7827 -1.29045,-5.50772 1.07695,-5.50772 1.89122,0 4.0006,4.27902 3.17279,6.43623 -0.86615,2.25715 -2.37899,1.92661 -4.24974,-0.92851 z m 5.555,-3.09164 c -1.1514,-3.02841 -0.54481,-4.41608 1.9304,-4.41608 1.88486,0 4.52332,4.50847 3.55519,6.07494 -1.18051,1.91009 -4.51168,0.90274 -5.48559,-1.65886 z m 11.06708,-3.35034 c -1.52562,-2.85066 -1.26925,-4.06574 0.85783,-4.06574 1.86998,0 3.10699,1.82418 3.10699,4.58179 0,2.08613 -2.76476,1.72628 -3.96482,-0.51605 z m 7.21482,-1.20714 c -0.6875,-0.69223 -1.25,-2.16503 -1.25,-3.27289 0,-1.84437 0.13464,-1.87964 1.59609,-0.41819 0.87785,0.87784 1.44035,2.35064 1.25,3.27288 -0.27787,1.3463 -0.59247,1.42873 -1.59609,0.4182 z m 4.35699,-2.44039 c -1.03447,-2.69579 -0.67377,-4.41821 0.92523,-4.41821 1.54954,0 3.60561,3.86709 2.79135,5.25 -0.77746,1.3204 -3.08925,0.80301 -3.71658,-0.83179 z m 7.86106,-3.51887 c -0.9913,-3.1233 1.27922,-4.92418 3.09927,-2.45821 0.78797,1.06762 1.43268,2.53012 1.43268,3.25 0,2.1554 -3.80769,1.49015 -4.53195,-0.79179 z m 12.94511,-2.45471 c -3.0014,-7.17918 -2.89655,-7.64585 2.82839,-12.58841 4.31939,-3.72909 6.3362,-4.74801 10.54335,-5.32664 l 5.20228,-0.71549 -0.57979,2.89897 c -0.69447,3.47233 1.48351,5.77373 4.54462,4.80217 2.45747,-0.77997 2.63,-3.23928 0.44599,-6.35739 -1.8593,-2.65452 -2.08298,-2.31449 3.31216,-5.03492 5.65294,-2.85042 6.62428,-2.71901 11.33063,1.5329 3.9799,3.5956 4.04172,3.7562 3.75288,9.75 -0.28017,5.81399 -0.41956,6.10867 -3.03172,6.40945 -2.52234,0.29043 -2.69334,0.0917 -2.17041,-2.52298 0.77403,-3.87015 -2.43658,-6.98078 -5.50835,-5.33681 -2.68001,1.4343 -2.62301,2.24953 0.40923,5.85314 l 2.49242,2.96208 -2.24242,0.601 c -4.2139,1.12937 -4.57828,0.82342 -4.01559,-3.3717 0.58886,-4.39029 -0.26069,-4.88812 -5.16173,-3.02475 -3.07859,1.17048 -3.27932,3.31053 -0.5651,6.02475 2.58814,2.58814 2.57507,2.63737 -1.25,4.70778 -2.31079,1.25077 -5.53437,1.76392 -11.15474,1.77568 -7.87544,0.0165 -7.90947,0.005 -9.1821,-3.03883 z m 17.38684,-0.64463 c 0.66,-0.66 1.2,-2.46857 1.2,-4.01905 0,-2.56459 -0.24823,-2.761 -2.75,-2.17585 -1.5125,0.35376 -3.39492,1.24833 -4.18316,1.98792 -1.23977,1.16327 -1.18513,1.61879 0.40499,3.37585 2.09817,2.31846 3.60569,2.55361 5.32817,0.83113 z m -3.21821,-8.8 c 0.23001,0 0.41821,-1.10917 0.41821,-2.46482 0,-2.93241 -3.09972,-5.03546 -4.8468,-3.28838 -2.40351,2.40351 -0.29143,7.40396 2.65044,6.27506 0.74797,-0.28703 1.54813,-0.52186 1.77815,-0.52186 z m 17.91821,-7.5 c 0,-2.52893 -0.39041,-3 -2.4863,-3 -1.60345,0 -2.60998,0.64215 -2.83458,1.80841 -0.58425,3.03378 0.65315,4.85441 3.06641,4.51173 1.76716,-0.25094 2.25447,-0.9686 2.25447,-3.32014 z M 333.97304,330.99864 c -1.00441,-1.62518 0.51395,-3.86655 4.48223,-6.61658 3.24056,-2.24571 4.35315,-2.53579 6.67535,-1.74047 1.53266,0.52491 4.38667,0.76066 6.34224,0.52389 2.40522,-0.29122 3.96989,0.0687 4.83609,1.11241 1.60698,1.93629 0.45581,3.98743 -1.74283,3.10536 -0.90687,-0.36383 -4.30785,-0.8093 -7.55774,-0.98993 -5.47097,-0.3041 -6.09889,-0.1119 -8.47268,2.59332 -2.70534,3.08307 -3.6447,3.49729 -4.56266,2.012 z m -32.05577,-38.10327 c -18.99794,-1.95333 -23.86683,-5.68079 -25.09498,-19.21189 -1.13293,-12.48199 -2.28912,-13.39496 -18.40502,-14.53337 l -10.5,-0.74171 0,-3.5 0,-3.5 13.5,-0.69062 c 7.425,-0.37985 23.4,-0.81847 35.5,-0.97473 l 22,-0.28411 13.13012,3.35355 13.13011,3.35355 9.36989,-2.69687 c 14.46971,-4.16471 21.30488,-4.59988 54.36988,-3.4615 16.5,0.56808 30.59124,1.22504 31.31387,1.45992 0.82217,0.26724 1.19641,1.64591 1,3.68393 l -0.31387,3.25688 -9.35053,0.65757 c -17.63499,1.24017 -18.44362,1.76977 -19.60853,12.84243 -0.83131,7.90166 -3.4877,14.26378 -6.88502,16.48979 -3.73686,2.44849 -12.73856,4.2491 -25.1939,5.03954 -20.78258,1.31891 -28.54997,-2.42386 -32.58249,-15.70005 -1.15883,-3.8152 -2.59176,-6.75854 -3.19278,-6.5582 -0.59971,0.19991 -1.60179,2.35819 -2.22685,4.79619 -4.07051,15.87671 -13.06473,19.68501 -39.9599,16.9197 z m 25.60499,-2.36343 c 12.90926,-5.476 16.62489,-28.36695 5.36795,-33.0704 -10.73332,-4.48467 -39.00892,-6.72538 -46.26116,-3.66599 -4.28774,1.8088 -5.10583,3.53474 -5.83637,12.31308 -0.7068,8.49297 0.71506,14.98115 4.00377,18.26986 2.37566,2.37566 12.48531,6.12575 20.37803,7.55905 6.4703,1.175 17.96921,0.45176 22.34778,-1.4056 z m -5.85499,-19.28582 c -2.17889,-0.8792 -1.38093,-3.33772 1.08333,-3.33772 3.00972,0 3.93579,0.9708 2.53555,2.65799 -1.17367,1.41418 -1.60018,1.49429 -3.61888,0.67973 z m 63.54216,20.07915 c 19.34405,-3.97311 22.20784,-6.90256 22.20784,-22.71701 0,-5.40724 -0.46078,-10.69232 -1.02396,-11.74463 -0.60215,-1.12512 -3.37155,-2.59575 -6.72277,-3.56998 -6.50692,-1.89161 -19.45024,-1.46189 -32.7787,1.08826 -14.28419,2.73302 -17.9555,6.13682 -17.73581,16.44351 0.16121,7.56301 4.41211,15.7038 9.60112,18.38687 7.66364,3.96261 14.70747,4.52527 26.45228,2.11298 z m -24.79216,-21.84732 c 0,-1.02102 0.90283,-1.56955 2.58333,-1.56955 3.13272,0 2.78984,2.34847 -0.41166,2.81955 -1.44221,0.21221 -2.17167,-0.20766 -2.17167,-1.25 z m -64.46756,-40.60341 c 3.59008,-3.74723 11.48699,-7.59317 17.46756,-8.50701 5.81456,-0.88848 5.06342,-0.21685 -3.26036,2.91524 -3.71819,1.39909 -8.74927,3.91221 -11.18017,5.58471 -5.6244,3.86969 -6.73014,3.87227 -3.02703,0.007 z m 64.66311,-0.82744 c 3.48958,-1.43757 14.20364,-1.13353 17.0977,0.48518 0.9715,0.54339 -2.60526,0.87612 -9.41788,0.87612 -10.218,0 -10.75375,-0.095 -7.67982,-1.3613 z"
         id="path3004"
         inkscape:connector-curvature="0" />
      <path
         style="fill:#505050"
         d="m 281.91727,442.42197 c -3.3,-0.73008 -7.26128,-1.81721 -8.80284,-2.41583 -8.94363,-3.47304 -16.69716,-14.96946 -16.69716,-24.75746 0,-5.55369 0.79815,-6.49419 3.12755,-3.68538 1.80334,2.17448 7.10068,4.34605 10.59033,4.34136 3.77745,-0.005 9.03558,-3.37724 11.09061,-7.11267 0.93033,-1.69107 2.92901,-4.66856 4.44151,-6.61664 3.47767,-4.47919 3.46581,-6.73816 -0.053,-10.09387 -7.07681,-6.74879 -12.81558,-8.92463 -19.0202,-7.21145 -1.96039,0.54129 -3.76128,0.78722 -4.00199,0.54651 -0.87963,-0.87963 3.96501,-19.23135 7.16372,-27.13653 3.24233,-8.01294 10.8179,-21.73222 12.61271,-22.84147 0.5065,-0.31304 3.54771,1.12712 6.75823,3.20035 3.21053,2.07323 7.8518,4.62437 10.31393,5.6692 2.46213,1.04483 6.2766,2.70795 8.4766,3.69582 2.2,0.98787 6.81377,2.56964 10.25283,3.51504 5.96408,1.63955 6.51168,2.06285 11.85836,9.16654 l 5.60552,7.44762 5.87795,-0.42518 c 6.48638,-0.46918 8.89117,-2.08371 13.91876,-9.34481 2.55125,-3.68464 3.47211,-4.2035 10.32953,-5.82014 4.14072,-0.97617 8.04813,-2.40087 8.68312,-3.166 0.635,-0.76512 2.10584,-1.69306 3.26855,-2.06209 1.16271,-0.36903 7.39033,-3.24513 13.83916,-6.39133 6.44884,-3.14621 12.14708,-5.4492 12.66276,-5.11777 2.48861,1.59945 13.20346,20.69932 13.20346,23.53598 0,1.04897 -4.58435,3.003 -15.25,6.50015 -8.3875,2.75017 -24.25,8.20249 -35.25,12.11627 -11.87333,4.22452 -22.03167,7.24493 -25,7.43335 -2.75,0.17455 -5.7875,0.6354 -6.75,1.0241 -2.1293,0.85992 -2.29869,5.47505 -0.38511,10.49276 0.73412,1.925 1.89637,4.9625 2.58277,6.75 1.72052,4.48056 6.492,4.16098 11.21609,-0.75121 0.91506,-0.9515 4.74006,-2.55721 8.5,-3.56825 3.75994,-1.01104 14.71125,-4.86124 24.33625,-8.556 l 17.5,-6.71775 1.05762,11.20581 c 1.09384,11.5897 1.39891,12.64627 4.71669,16.33548 1.73383,1.92795 1.95452,3.49442 1.79567,12.74613 -0.17829,10.38441 -0.14194,10.56588 2.34311,11.69814 1.38831,0.63256 2.28675,1.5343 1.99654,2.00388 -0.29022,0.46957 -21.67345,0.85377 -47.51831,0.85377 -37.8582,0 -47.51544,0.26682 -49.69098,1.37291 -3.484,1.77133 -14.48579,3.64937 -20.78225,3.54759 -2.70495,-0.0437 -7.61809,-0.67684 -10.91809,-1.40693 z m 36.27615,-28.10255 c 1.30938,-0.85794 2.14619,-2.17101 1.85957,-2.91794 -0.28662,-0.74692 -0.8319,-4.10492 -1.21174,-7.46223 -0.7437,-6.5734 -2.70189,-9.03085 -7.19615,-9.03085 -2.68913,0 -8.22783,2.63904 -8.22783,3.92035 0,1.38044 4.11608,14.38816 5.20097,16.43621 1.13511,2.14285 5.52299,1.70955 9.57518,-0.94554 z m 37.63695,-22.9033 c -0.9378,-1.43127 -1.34293,-3.24057 -0.95163,-4.25 0.63676,-1.64263 0.77491,-1.63062 2.10995,0.18341 1.33084,1.80833 2.0201,6.55887 0.95163,6.55887 -0.26232,0 -1.2118,-1.12153 -2.10995,-2.49228 z m 9.19389,-3.08951 c -1.54458,-4.02511 -0.099,-6.41821 3.87697,-6.41821 1.88509,0 3.6506,5.46544 2.22577,6.89027 -1.63874,1.63874 -5.40453,1.34745 -6.10274,-0.47206 z m 10.37936,-3.16821 c -0.008,-0.4125 -0.285,-1.7625 -0.61664,-3 -0.82386,-3.07423 1.03562,-2.85058 2.46977,0.29705 0.63829,1.40088 1.16052,2.75088 1.16052,3 0,0.78564 -2.99933,0.48999 -3.01365,-0.29705 z m 38.01365,-3.30103 c 0,-2.53628 0.58507,-3.29548 3.46788,-4.5 4.80049,-2.00577 5.84129,-1.89518 4.5673,0.48529 -0.56935,1.06384 -1.03518,3.08884 -1.03518,4.5 0,2.26561 -0.40942,2.56574 -3.5,2.56574 -3.23523,0 -3.5,-0.23081 -3.5,-3.05103 z m -30.54112,-0.0155 c -0.36253,-0.58659 -0.44468,-1.281 -0.18255,-1.54313 0.26212,-0.26213 0.74306,0.21781 1.06875,1.06653 0.67618,1.76211 0.0999,2.07206 -0.8862,0.4766 z m 4.70771,-2.46719 c -0.95789,-2.10233 -0.8829,-2.63791 0.44041,-3.14571 1.7506,-0.67177 3.35375,1.19326 3.37769,3.92943 0.023,2.62438 -2.50135,2.10623 -3.8181,-0.78372 z m 6.48764,-2.6805 c -0.74496,-2.84875 1.42875,-4.30642 3.09577,-2.07599 1.81032,2.42217 1.53454,4.29021 -0.63337,4.29021 -1.1031,0 -2.12326,-0.91734 -2.4624,-2.21422 z m 11.5291,-2.00245 c -1.43015,-1.43015 -1.57203,-4.78333 -0.20238,-4.78333 1.01969,0 2.58942,4.76297 1.82248,5.5299 -0.24022,0.24022 -0.96926,-0.0957 -1.6201,-0.74657 z m 10.81667,-5.78333 c -0.85431,-1.5963 -0.76049,-2 0.46482,-2 0.84435,0 1.53518,0.1882 1.53518,0.41821 0,0.23002 0.27314,1.13002 0.60699,2 0.88228,2.2992 -1.34379,1.94209 -2.60699,-0.41821 z m 8.24055,-1.98643 c -1.58411,-2.53656 -1.55998,-3.01357 0.15246,-3.01357 1.31026,0 2.60699,2.0303 2.60699,4.08179 0,1.57434 -1.46279,1.00807 -2.75945,-1.06822 z m 13.30402,-1.26357 c -3.02702,-9.6363 -3.15289,-8.55446 1.55321,-13.34963 2.37525,-2.4202 4.7107,-4.40037 5.18988,-4.40037 1.87507,0 -0.68973,6.63705 -3.47792,9 -4.03929,3.42324 -3.0376,6 2.33243,6 2.16051,0 5.0972,0.76596 6.52597,1.70213 2.52329,1.65332 2.65849,1.62839 4.71482,-0.86939 1.9973,-2.42608 4.61704,-2.82235 4.61704,-0.69838 0,3.16039 -20.49928,5.65947 -21.45543,2.61564 z m 26.70543,-6 c 0.22917,-0.6875 1.01667,-1.25 1.75,-1.25 0.73333,0 1.52083,0.5625 1.75,1.25 0.24786,0.74359 -0.46111,1.25 -1.75,1.25 -1.28889,0 -1.99786,-0.50641 -1.75,-1.25 z m 9.0486,-4.19949 c -0.13277,-4.68369 -4.74748,-12.55051 -7.36219,-12.55051 -1.13916,0 -2.46127,1.05783 -3.1148,2.49218 -0.88119,1.934 -1.43633,2.24254 -2.47856,1.37756 -2.10383,-1.74602 -1.64838,-2.43487 2.90695,-4.3966 2.3375,-1.00664 4.56501,-2.0049 4.95001,-2.21836 0.38501,-0.21347 2.76837,1.51842 5.29636,3.84864 4.43266,4.08589 4.5858,4.41768 4.29999,9.31667 -0.24748,4.24214 -0.63454,5.1283 -2.34694,5.37333 -1.72139,0.24631 -2.06667,-0.27429 -2.15082,-3.24291 z m -22.63193,-6.21718 c -1.26128,-1.26128 -0.6631,-2.33333 1.30195,-2.33333 1.33903,0 1.78453,0.47971 1.39301,1.5 -0.61563,1.60429 -1.61499,1.91331 -2.69496,0.83333 z M 334.41727,330.01199 c 0,-0.49302 1.53527,-2.24439 3.41172,-3.89193 3.24651,-2.85047 3.74284,-2.97068 10.25,-2.48243 6.56202,0.49237 9.42754,1.51484 8.06474,2.87764 -0.35211,0.35211 -1.44711,0.30596 -2.43333,-0.10257 -0.98622,-0.40853 -4.23887,-0.87261 -7.22811,-1.03128 -4.89392,-0.25977 -5.70538,9.8e-4 -8.15121,2.61925 -2.79943,2.99679 -3.91381,3.56948 -3.91381,2.01132 z m -43.50382,-39.55196 c -9.73135,-2.38664 -12.03428,-5.41471 -13.65261,-17.95142 -1.47643,-11.43748 -2.57826,-12.4408 -14.97953,-13.6403 -5.15022,-0.49814 -10.60154,-0.91791 -12.11404,-0.93281 -2.24154,-0.0221 -2.75,-0.47843 -2.75,-2.46808 0,-1.34254 0.41931,-2.70013 0.9318,-3.01687 1.57905,-0.97591 39.29899,-2.31319 42.01311,-1.48949 1.5385,0.46691 1.87232,0.80963 0.83902,0.86139 -3.22065,0.16131 -8.58735,3.35908 -9.68667,5.77184 -1.72885,3.7944 -1.38558,19.90427 0.5092,23.89722 1.83413,3.86513 5.99066,6.72798 12.14354,8.36395 2.3375,0.62152 4.25,1.33768 4.25,1.59148 0,0.65263 -1.76557,0.42042 -7.50382,-0.98691 z m 99.50382,1.01933 c 0,-0.23597 2.375,-1.11947 5.27778,-1.96334 6.02635,-1.7519 10.29576,-5.63385 11.74192,-10.67629 0.53916,-1.87997 0.9803,-7.07291 0.9803,-11.53987 0,-9.61272 -1.69377,-12.62021 -8.20641,-14.57145 -3.71211,-1.11217 -3.87227,-1.28785 -1.69636,-1.86068 2.5301,-0.66608 39.46195,0.65753 41.63719,1.49225 1.5212,0.58374 1.6854,4.17092 0.23204,5.06915 -0.56845,0.35132 -4.95595,0.85746 -9.75,1.12475 -10.83228,0.60395 -15.88716,1.8707 -17.19168,4.30822 -0.55508,1.03717 -1.46338,5.08788 -2.01844,9.00158 -1.83532,12.94071 -4.34321,16.35131 -13.66001,18.57691 -6.45832,1.54276 -7.34633,1.66832 -7.34633,1.03877 z m -56.80305,-4.19135 c 8.03403,-8.57815 8.63992,-25.23464 1.07857,-29.65071 -4.17862,-2.44044 -20.94168,-5.81573 -30.02448,-6.04551 -10.0148,-0.25336 -9.16133,-1.68514 0.99896,-1.67584 9.70846,0.009 18.79725,1.33982 27.60534,4.04243 8.47056,2.59904 14.11587,2.45818 24.21843,-0.60429 6.36051,-1.92811 11.61322,-2.69686 21.42623,-3.13581 7.15,-0.31983 12.67821,-0.2361 12.2849,0.18607 -0.3933,0.42217 -3.59713,0.89506 -7.11962,1.05087 -8.70257,0.38494 -23.23014,3.18529 -28.44905,5.48388 -3.11668,1.37269 -4.68325,2.84278 -5.75,5.39589 -3.03028,7.25248 -0.85632,18.51225 4.67634,24.2205 1.78737,1.8441 2.79568,3.35291 2.24069,3.35291 -2.33018,0 -6.8735,-6.42348 -8.98851,-12.70823 -1.24952,-3.71294 -2.74304,-6.90787 -3.31895,-7.09984 -1.1856,-0.3952 -2.52661,2.39871 -4.04505,8.42752 -1.16552,4.62762 -4.11114,8.8375 -7.3583,10.51648 -1.87274,0.96832 -1.80038,0.72602 0.5245,-1.75632 z M 321.66727,269.6584 c 0.22917,-0.6875 1.01667,-1.25 1.75,-1.25 0.73333,0 1.52083,0.5625 1.75,1.25 0.24786,0.74359 -0.46111,1.25 -1.75,1.25 -1.28889,0 -1.99786,-0.50641 -1.75,-1.25 z m 39.75,-0.25 c 0,-0.91667 0.5625,-1.47917 1.25,-1.25 1.41567,0.47189 1.26005,2.07998 -0.25,2.58333 -0.55,0.18334 -1,-0.41666 -1,-1.33333 z"
         id="path3002"
         inkscape:connector-curvature="0" />
      <path
         style="fill:#272727"
         d="m 283.91727,442.28967 c -8.64002,-2.19679 -14.44884,-4.82312 -17.89814,-8.09224 -5.61018,-5.31712 -9.29729,-14.21366 -8.70782,-21.0109 0.0693,-0.79952 1.74782,-0.33958 4.85596,1.33064 8.47615,4.55482 14.28693,2.61862 21.3344,-7.10877 6.69794,-9.24495 6.93121,-14.28742 0.82772,-17.89284 -2.65316,-1.56726 -2.95233,-2.18387 -2.40105,-4.94875 1.67222,-8.38674 5.48893,-16.8821 5.48893,-12.21743 0,1.6867 0.59645,1.83979 6.1748,1.58487 2.02114,-0.0924 7.98902,1.21404 13.26196,2.90311 10.3875,3.32741 15.18354,3.80039 17.95881,1.77106 1.65435,-1.20969 1.59425,-1.38363 -0.86526,-2.50425 -1.47726,-0.67309 -2.34789,-1.68192 -1.97383,-2.28716 0.47994,-0.77655 0.97678,-0.77535 1.75639,0.004 1.94862,1.94862 5.85256,1.14907 9.33991,-1.91287 2.25602,-1.98081 4.50912,-3.0081 6.63202,-3.02386 1.76836,-0.0131 4.95012,-0.42642 7.07059,-0.91845 2.75901,-0.6402 4.99867,-0.49123 7.87572,0.52385 5.37536,1.89654 5.4826,1.87276 7.28627,-1.61515 1.02123,-1.97484 2.58292,-3.23645 4.47457,-3.61478 3.69926,-0.73985 5.41027,-2.66608 7.68439,-8.65099 1.77399,-4.66866 2.10232,-4.93243 12.05503,-9.68466 5.62725,-2.6869 10.41444,-4.57718 10.63819,-4.20062 0.72566,1.22121 -3.05329,14.01794 -5.79354,19.61881 -4.64385,9.49169 -6.20272,10.53744 -26.07602,17.49285 -10.64102,3.72423 -20.13671,6.43829 -23.22639,6.63857 -6.27041,0.40646 -9.27361,1.83481 -9.27361,4.4106 0,2.35666 -1.07424,3.06358 -7.91979,5.21172 -3.6925,1.15872 -5.98212,1.39979 -7.18426,0.75643 -4.20293,-2.24908 -14.89595,0.44971 -14.89595,3.75981 0,3.34392 5.51064,18.49905 7.02032,19.30701 0.97312,0.52079 3.58036,0.0166 7.01425,-1.35653 l 5.46543,-2.18543 0,-4.41564 0,-4.41563 6.34938,-2.04316 c 6.8739,-2.21194 6.50904,-2.32364 9.69629,2.96851 1.5174,2.5195 7.68774,1.11895 11.50351,-2.61107 1.66087,-1.62356 3.90426,-2.95193 4.9853,-2.95193 2.18517,0 2.52618,1.03934 0.88086,2.68466 -1.45811,1.45811 -0.77876,5.43296 1.08466,6.34631 0.825,0.40437 2.83608,1.13127 4.46907,1.61533 1.63298,0.48406 3.64306,2.08091 4.46683,3.54856 1.36643,2.43447 1.33363,2.84983 -0.37405,4.7368 -1.86838,2.06453 -1.8628,2.06831 3.03316,2.0527 4.45964,-0.0142 27.98726,-3.14573 34.65499,-4.61255 l 2.75,-0.60496 0,8.68231 c 0,4.77528 0.46583,9.55274 1.03518,10.61658 1.01626,1.8989 0.2204,1.93426 -43.53154,1.93426 -42.9136,0 -44.79739,0.0793 -50.78519,2.13715 -6.09315,2.09409 -23.39644,3.47016 -28.21845,2.24412 z m 56.5,-20.38127 c 0,-0.55 -0.675,-1 -1.5,-1 -0.825,0 -1.5,0.45 -1.5,1 0,0.55 0.675,1 1.5,1 0.825,0 1.5,-0.45 1.5,-1 z m 14.28696,-0.11304 c -0.61216,-0.61216 -3.17716,-1.34569 -5.7,-1.63005 -3.78473,-0.42659 -4.58696,-0.23193 -4.58696,1.11304 0,1.31608 1.09788,1.63005 5.7,1.63005 4.18591,0 5.40435,-0.29565 4.58696,-1.11304 z M 320.85942,402.002 c 0.6144,-0.99412 9.12176,-4.0936 11.23599,-4.0936 2.84717,0 1.08595,1.61435 -3.56235,3.26528 -5.34533,1.89849 -8.54875,2.24428 -7.67364,0.82832 z m 35.19622,-11.5936 c -0.31658,-0.825 -0.13972,-1.5 0.39301,-1.5 0.53274,0 0.96862,0.675 0.96862,1.5 0,0.825 -0.17686,1.5 -0.39301,1.5 -0.21616,0 -0.65203,-0.675 -0.96862,-1.5 z m 10.0283,-2.16667 c -1.23889,-1.23888 -0.67719,-4.11532 0.92357,-4.72959 2.25817,-0.86654 3.40976,0.13156 3.40976,2.95528 0,1.70034 -0.55626,2.44098 -1.83333,2.44098 -1.00834,0 -2.13334,-0.3 -2.5,-0.66667 z m 23,-8 c -0.36667,-0.36666 -0.66667,-1.13166 -0.66667,-1.7 0,-0.6266 0.46577,-0.56756 1.18333,0.15 0.65084,0.65084 0.95084,1.41584 0.66667,1.7 -0.28417,0.28417 -0.81667,0.21667 -1.18333,-0.15 z m 6.33333,-3.83333 c 0,-0.825 0.17686,-1.5 0.39301,-1.5 0.21616,0 0.65203,0.675 0.96862,1.5 0.31658,0.825 0.13972,1.5 -0.39301,1.5 -0.53274,0 -0.96862,-0.675 -0.96862,-1.5 z M 299.7554,366.34717 c -0.75668,-1.97188 0.28336,-11.05452 1.74641,-15.25145 1.81676,-5.21154 2.84921,-3.61847 1.33682,2.06268 -1.63153,6.12864 -1.81108,10.39111 -0.47257,11.21835 0.52184,0.32252 3.86022,0.12129 7.41862,-0.44717 6.53073,-1.04329 11.63259,-0.19567 11.63259,1.93263 0,0.64352 -0.86846,0.60762 -2.42178,-0.10012 -2.72164,-1.24007 -15.18853,-0.29324 -16.12672,1.22478 -0.87608,1.41754 -2.44786,1.09459 -3.11337,-0.6397 z m 142.84951,-1.62671 c 2.49871,-0.66488 4.27195,-0.64137 5.5,0.0729 1.42084,0.82645 0.62419,1.03842 -3.68764,0.98124 -5.47823,-0.0727 -5.4854,-0.0768 -1.81236,-1.05418 z m -6.18764,-7.69285 c 0,-0.52313 1.8,-2.37678 4,-4.11921 4.23187,-3.3517 5.56783,-2.55564 1.75,1.04278 -2.99484,2.82273 -5.75,4.29683 -5.75,3.07643 z m 38.4231,-3.86921 c -0.45392,-3.08258 -1.70406,-5.90308 -3.56128,-8.0348 -4.79871,-5.50795 -3.65388,-5.82901 2.1353,-0.59884 3.6304,3.27985 4.00288,4.0708 4.00288,8.5 0,6.24721 -1.66396,6.33351 -2.5769,0.13364 z m -192.18217,-67.5 c -2.88379,-3.07848 -4.06354,-6.56219 -4.86222,-14.35779 -1.12989,-11.02842 -4.73554,-13.25373 -21.62871,-13.34866 -7.55002,-0.0424 -7.75,-0.10689 -7.75,-2.49824 0,-3.06864 1.00013,-3.24431 22.96262,-4.03338 l 16.46261,-0.59147 -3.89643,3.3682 -3.89644,3.36821 -0.44001,9.20307 c -0.4904,10.2571 1.2479,16.93416 5.1135,19.64173 1.17654,0.82408 1.66748,1.49833 1.09097,1.49833 -0.57651,0 -1.99666,-1.0125 -3.15589,-2.25 z m 124.32336,-3.04313 c 0.37553,-0.98622 0.93469,-1.54122 1.24258,-1.23333 0.30789,0.30789 6.4e-4,1.11479 -0.68278,1.79313 -0.98762,0.98026 -1.10248,0.8654 -0.5598,-0.5598 z m 1.51466,-4.12354 c -0.0434,-1.05416 0.19292,-1.64479 0.52522,-1.3125 0.33229,0.33229 0.36781,1.19479 0.0789,1.91667 -0.31922,0.79773 -0.55618,0.56078 -0.60416,-0.60417 z m 0.62864,-8.48002 c -0.38918,-3.51818 -0.70759,-7.87292 -0.70759,-9.6772 0,-2.57367 -0.80669,-3.94544 -3.74397,-6.3666 l -3.74397,-3.0861 16.49397,0.56633 c 21.76466,0.7473 23.20203,0.98474 22.80606,3.76722 -0.29118,2.04609 -0.99777,2.23469 -10.54509,2.81468 -10.82408,0.65755 -15.62777,1.99938 -16.89703,4.71992 -0.42556,0.91214 -1.26448,4.35844 -1.86427,7.65844 l -1.09052,6 -0.70759,-6.39669 z m -86.70759,-0.0443 c 0,-0.58246 0.45,-1.05902 1,-1.05902 0.55,0 1,0.19844 1,0.44098 0,0.24254 -0.45,0.7191 -1,1.05902 -0.55,0.33992 -1,0.14148 -1,-0.44098 z m 18,-1.9098 c 0,-4.76589 -1.99621,-8.94515 -5.3316,-11.16223 l -3.1684,-2.10608 3.5,0.80955 c 4.57136,1.05734 13.58472,1.03363 18,-0.0474 l 3.5,-0.8569 -3.5,2.395 c -2.79794,1.9146 -3.80585,3.5458 -5.02478,8.13213 -1.20338,4.5278 -1.78305,5.47885 -2.75,4.5119 -0.95295,-0.95295 -1.49189,-0.95855 -2.42522,-0.0252 -1.92274,1.92274 -2.8,1.40554 -2.8,-1.65078 z"
         id="path3000"
         inkscape:connector-curvature="0" />
      <path
         style="fill:#121212"
         d="m 340.93985,265.07989 c -0.36879,-2.01932 -1.26509,-4.59619 -1.99177,-5.72639 -1.28745,-2.00234 -1.14851,-2.05349 5.43281,-2 l 6.75406,0.0549 -1.49026,2.27505 c -0.81965,1.25128 -1.777,3.67703 -2.12746,5.39057 -0.49681,2.42915 -1.21765,3.1774 -3.27201,3.39643 -2.32048,0.24741 -2.71483,-0.1571 -3.30537,-3.39056 z m 68.52895,-1.84476 c -0.0407,-4.08838 -0.60613,-5.83238 -2.6961,-8.31617 l -2.64457,-3.14289 17.39457,0.68769 c 9.56701,0.37823 17.78286,1.0438 18.25744,1.47903 1.96621,1.80323 -0.84063,2.69628 -10.45454,3.32632 -12.24893,0.80272 -16.18113,2.40891 -18.28093,7.46723 l -1.52434,3.67206 -0.0515,-5.17327 z m -132.05153,1.34758 c 0,-4.52462 -9.3587,-7.60563 -23.25,-7.6542 -4.33048,-0.0152 -5.75,-0.37585 -5.75,-1.46109 0,-0.79254 0.3375,-1.63557 0.75,-1.87339 0.4125,-0.23782 8.625,-0.75171 18.25,-1.14199 l 17.5,-0.70959 -2.75,2.8877 c -2.10412,2.20947 -2.75,3.87301 -2.75,7.08297 0,2.3074 -0.45,4.19528 -1,4.19528 -0.55,0 -1,-0.59656 -1,-1.32569 z"
         id="path2998"
         inkscape:connector-curvature="0" />
    </g>
    <g
       id="g3049"
       transform="matrix(1.0976538,0,0,1.0976538,-15.476197,-45.808239)"
       inkscape:export-xdpi="39.080002"
       inkscape:export-ydpi="39.080002">
      <path
         inkscape:connector-curvature="0"
         id="path3047"
         d="m 119.00866,352.76919 8.89785,4.44893 2.22446,20.02015 19.46403,1.66834 0.55612,-23.35684 10.01007,-1.66834 9.45396,4.44892 8.34173,-4.44892 40.0403,1.11223 1.66834,20.57626 -10.56618,5.56115 -2.78058,35.59138 -9.45396,15.01511 -8.89784,-4.44892 -2.78058,-48.38203 -15.57123,-2.78057 0,49.49425 11.67842,6.67339 0,17.23957 -23.91295,-3.33669 -7.78562,-8.89785 -2.22446,-34.47914 -18.3518,0 -1.11223,27.80576 -12.23454,0.55612 -6.11727,-10.01008 0,-58.94822 z"
         style="fill:#ffffff;stroke:#ffffff;stroke-width:1px;stroke-linecap:butt;stroke-linejoin:miter;stroke-opacity:1" />
      <flowRoot
         transform="matrix(1.981251,0,0,1.981251,-77.895777,-335.28663)"
         style="font-size:16px;font-style:normal;font-variant:normal;font-weight:normal;font-stretch:normal;line-height:125%;letter-spacing:0px;word-spacing:0px;fill:#000000;fill-opacity:1;stroke:none;font-family:Arial;-inkscape-font-specification:Arial"
         id="flowRoot3039"
         xml:space="preserve"><flowRegion
           id="flowRegion3041"><rect
             style="fill:#000000"
             y="343.31525"
             x="93.427361"
             height="107.33025"
             width="161.27342"
             id="rect3043" /></flowRegion><flowPara
           style="font-size:48px;font-style:normal;font-variant:normal;font-weight:normal;font-stretch:normal;fill:#000000;font-family:Alba Super;-inkscape-font-specification:Alba Super"
           id="flowPara3045">HT</flowPara></flowRoot>    </g>
  </g>
</svg>
